SplineFontDB: 3.2
FontName: RussianGuage
FullName: RussianGuage
FamilyName: RussianGuage
Weight: Regular
Copyright: Copyright (c) 2023, victor
UComments: "2023-11-30: Created with FontForge (http://fontforge.org)"
Version: 001.000
ItalicAngle: 0
UnderlinePosition: -102
UnderlineWidth: 51
Ascent: 896
Descent: 128
InvalidEm: 0
LayerCount: 2
Layer: 0 0 "Back" 1
Layer: 1 0 "Fore" 0
XUID: [1021 173 350157828 12173]
StyleMap: 0x0000
FSType: 0
OS2Version: 0
OS2_WeightWidthSlopeOnly: 0
OS2_UseTypoMetrics: 1
CreationTime: 1701313255
ModificationTime: 1701358066
OS2TypoAscent: 0
OS2TypoAOffset: 1
OS2TypoDescent: 0
OS2TypoDOffset: 1
OS2TypoLinegap: 92
OS2WinAscent: 0
OS2WinAOffset: 1
OS2WinDescent: 0
OS2WinDOffset: 1
HheadAscent: 0
HheadAOffset: 1
HheadDescent: 0
HheadDOffset: 1
MarkAttachClasses: 1
DEI: 91125
Encoding: UnicodeFull
UnicodeInterp: none
NameList: AGL For New Fonts
DisplaySize: -48
AntiAlias: 1
FitToEm: 0
WinInfo: 0 77 27
BeginPrivate: 0
EndPrivate
BeginChars: 1114112 62

StartChar: uni0410
Encoding: 1040 1040 0
Width: 768
Flags: HW
LayerCount: 2
Fore
SplineSet
96 0 m 2
 96 -17.6611328125 110.338867188 -32 128 -32 c 0
 145.661132812 -32 160 -17.6611328125 160 0 c 2
 160 512 l 2
 160 529.661132812 145.661132812 544 128 544 c 0
 110.338867188 544 96 529.661132812 96 512 c 2
 96 0 l 2
105.376953125 534.623046875 m 2
 85.2841796875 514.530273438 99.6689453125 480 128 480 c 0
 136.831054688 480 144.831054688 483.584960938 150.623046875 489.376953125 c 2
 406.623046875 745.376953125 l 2
 426.715820312 765.469726562 412.331054688 800 384 800 c 0
 375.168945312 800 367.168945312 796.415039062 361.376953125 790.623046875 c 2
 105.376953125 534.623046875 l 2
384 800 m 2
 366.338867188 800 352 785.661132812 352 768 c 0
 352 750.338867188 366.338867188 736 384 736 c 2
 640 736 l 2
 657.661132812 736 672 750.338867188 672 768 c 0
 672 785.661132812 657.661132812 800 640 800 c 2
 384 800 l 2
672 768 m 2
 672 785.661132812 657.661132812 800 640 800 c 0
 622.338867188 800 608 785.661132812 608 768 c 2
 608 0 l 2
 608 -17.6611328125 622.338867188 -32 640 -32 c 0
 657.661132812 -32 672 -17.6611328125 672 0 c 2
 672 768 l 2
128 288 m 2
 110.338867188 288 96 273.661132812 96 256 c 0
 96 238.338867188 110.338867188 224 128 224 c 2
 640 224 l 2
 657.661132812 224 672 238.338867188 672 256 c 0
 672 273.661132812 657.661132812 288 640 288 c 2
 128 288 l 2
EndSplineSet
Validated: 37
EndChar

StartChar: A
Encoding: 65 65 1
Width: 768
Flags: HW
LayerCount: 2
Fore
SplineSet
96 0 m 2
 96 -17.6611328125 110.338867188 -32 128 -32 c 0
 145.661132812 -32 160 -17.6611328125 160 0 c 2
 160 512 l 2
 160 529.661132812 145.661132812 544 128 544 c 0
 110.338867188 544 96 529.661132812 96 512 c 2
 96 0 l 2
105.376953125 534.623046875 m 2
 85.2841796875 514.530273438 99.6689453125 480 128 480 c 0
 136.831054688 480 144.831054688 483.584960938 150.623046875 489.376953125 c 2
 406.623046875 745.376953125 l 2
 426.715820312 765.469726562 412.331054688 800 384 800 c 0
 375.168945312 800 367.168945312 796.415039062 361.376953125 790.623046875 c 2
 105.376953125 534.623046875 l 2
384 800 m 2
 366.338867188 800 352 785.661132812 352 768 c 0
 352 750.338867188 366.338867188 736 384 736 c 2
 640 736 l 2
 657.661132812 736 672 750.338867188 672 768 c 0
 672 785.661132812 657.661132812 800 640 800 c 2
 384 800 l 2
672 768 m 2
 672 785.661132812 657.661132812 800 640 800 c 0
 622.338867188 800 608 785.661132812 608 768 c 2
 608 0 l 2
 608 -17.6611328125 622.338867188 -32 640 -32 c 0
 657.661132812 -32 672 -17.6611328125 672 0 c 2
 672 768 l 2
128 288 m 2
 110.338867188 288 96 273.661132812 96 256 c 0
 96 238.338867188 110.338867188 224 128 224 c 2
 640 224 l 2
 657.661132812 224 672 238.338867188 672 256 c 0
 672 273.661132812 657.661132812 288 640 288 c 2
 128 288 l 2
EndSplineSet
Validated: 37
EndChar

StartChar: zero
Encoding: 48 48 2
Width: 768
Flags: HW
LayerCount: 2
Fore
SplineSet
256 800 m 2
 238.338867188 800 224 785.661132812 224 768 c 0
 224 750.338867188 238.338867188 736 256 736 c 2
 512 736 l 2
 529.661132812 736 544 750.338867188 544 768 c 0
 544 785.661132812 529.661132812 800 512 800 c 2
 256 800 l 2
534.623046875 790.623046875 m 2
 514.530273438 810.715820312 480 796.331054688 480 768 c 0
 480 759.168945312 483.584960938 751.168945312 489.376953125 745.376953125 c 2
 617.376953125 617.376953125 l 2
 637.469726562 597.284179688 672 611.668945312 672 640 c 0
 672 648.831054688 668.415039062 656.831054688 662.623046875 662.623046875 c 2
 534.623046875 790.623046875 l 2
672 640 m 2
 672 657.661132812 657.661132812 672 640 672 c 0
 622.338867188 672 608 657.661132812 608 640 c 2
 608 128 l 2
 608 110.338867188 622.338867188 96 640 96 c 0
 657.661132812 96 672 110.338867188 672 128 c 2
 672 640 l 2
662.623046875 105.376953125 m 2
 682.715820312 125.469726562 668.331054688 160 640 160 c 0
 631.168945312 160 623.168945312 156.415039062 617.376953125 150.623046875 c 2
 489.376953125 22.623046875 l 2
 469.284179688 2.5302734375 483.668945312 -32 512 -32 c 0
 520.831054688 -32 528.831054688 -28.4150390625 534.623046875 -22.623046875 c 2
 662.623046875 105.376953125 l 2
512 -32 m 2
 529.661132812 -32 544 -17.6611328125 544 0 c 0
 544 17.6611328125 529.661132812 32 512 32 c 2
 256 32 l 2
 238.338867188 32 224 17.6611328125 224 0 c 0
 224 -17.6611328125 238.338867188 -32 256 -32 c 2
 512 -32 l 2
233.376953125 -22.623046875 m 2
 253.469726562 -42.7158203125 288 -28.3310546875 288 0 c 0
 288 8.8310546875 284.415039062 16.8310546875 278.623046875 22.623046875 c 2
 150.623046875 150.623046875 l 2
 130.530273438 170.715820312 96 156.331054688 96 128 c 0
 96 119.168945312 99.5849609375 111.168945312 105.376953125 105.376953125 c 2
 233.376953125 -22.623046875 l 2
96 128 m 2
 96 110.338867188 110.338867188 96 128 96 c 0
 145.661132812 96 160 110.338867188 160 128 c 2
 160 640 l 2
 160 657.661132812 145.661132812 672 128 672 c 0
 110.338867188 672 96 657.661132812 96 640 c 2
 96 128 l 2
105.376953125 662.623046875 m 2
 85.2841796875 642.530273438 99.6689453125 608 128 608 c 0
 136.831054688 608 144.831054688 611.584960938 150.623046875 617.376953125 c 2
 278.623046875 745.376953125 l 2
 298.715820312 765.469726562 284.331054688 800 256 800 c 0
 247.168945312 800 239.168945312 796.415039062 233.376953125 790.623046875 c 2
 105.376953125 662.623046875 l 2
EndSplineSet
Validated: 37
EndChar

StartChar: one
Encoding: 49 49 3
Width: 768
Flags: HW
LayerCount: 2
Fore
SplineSet
105.376953125 534.623046875 m 2
 85.2841796875 514.530273438 99.6689453125 480 128 480 c 0
 136.831054688 480 144.831054688 483.584960938 150.623046875 489.376953125 c 2
 406.623046875 745.376953125 l 2
 426.715820312 765.469726562 412.331054688 800 384 800 c 0
 375.168945312 800 367.168945312 796.415039062 361.376953125 790.623046875 c 2
 105.376953125 534.623046875 l 2
416 768 m 2
 416 785.661132812 401.661132812 800 384 800 c 0
 366.338867188 800 352 785.661132812 352 768 c 2
 352 0 l 2
 352 -17.6611328125 366.338867188 -32 384 -32 c 0
 401.661132812 -32 416 -17.6611328125 416 0 c 2
 416 768 l 2
EndSplineSet
EndChar

StartChar: two
Encoding: 50 50 4
Width: 768
Flags: HW
LayerCount: 2
Fore
SplineSet
105.376953125 662.623046875 m 2
 85.2841796875 642.530273438 99.6689453125 608 128 608 c 0
 136.831054688 608 144.831054688 611.584960938 150.623046875 617.376953125 c 2
 278.623046875 745.376953125 l 2
 298.715820312 765.469726562 284.331054688 800 256 800 c 0
 247.168945312 800 239.168945312 796.415039062 233.376953125 790.623046875 c 2
 105.376953125 662.623046875 l 2
256 800 m 2
 238.338867188 800 224 785.661132812 224 768 c 0
 224 750.338867188 238.338867188 736 256 736 c 2
 512 736 l 2
 529.661132812 736 544 750.338867188 544 768 c 0
 544 785.661132812 529.661132812 800 512 800 c 2
 256 800 l 2
534.623046875 790.623046875 m 2
 514.530273438 810.715820312 480 796.331054688 480 768 c 0
 480 759.168945312 483.584960938 751.168945312 489.376953125 745.376953125 c 2
 617.376953125 617.376953125 l 2
 637.469726562 597.284179688 672 611.668945312 672 640 c 0
 672 648.831054688 668.415039062 656.831054688 662.623046875 662.623046875 c 2
 534.623046875 790.623046875 l 2
672 640 m 2
 672 657.661132812 657.661132812 672 640 672 c 0
 622.338867188 672 608 657.661132812 608 640 c 2
 608 512 l 2
 608 494.338867188 622.338867188 480 640 480 c 0
 657.661132812 480 672 494.338867188 672 512 c 2
 672 640 l 2
662.623046875 489.376953125 m 2
 682.715820312 509.469726562 668.331054688 544 640 544 c 0
 631.168945312 544 623.168945312 540.415039062 617.376953125 534.623046875 c 2
 105.376953125 22.623046875 l 2
 85.2841796875 2.5302734375 99.6689453125 -32 128 -32 c 0
 136.831054688 -32 144.831054688 -28.4150390625 150.623046875 -22.623046875 c 2
 662.623046875 489.376953125 l 2
128 32 m 2
 110.338867188 32 96 17.6611328125 96 0 c 0
 96 -17.6611328125 110.338867188 -32 128 -32 c 2
 640 -32 l 2
 657.661132812 -32 672 -17.6611328125 672 0 c 0
 672 17.6611328125 657.661132812 32 640 32 c 2
 128 32 l 2
EndSplineSet
Validated: 37
EndChar

StartChar: three
Encoding: 51 51 5
Width: 768
Flags: HW
LayerCount: 2
Fore
SplineSet
128 800 m 2
 110.338867188 800 96 785.661132812 96 768 c 0
 96 750.338867188 110.338867188 736 128 736 c 2
 640 736 l 2
 657.661132812 736 672 750.338867188 672 768 c 0
 672 785.661132812 657.661132812 800 640 800 c 2
 128 800 l 2
662.623046875 745.376953125 m 2
 682.715820312 765.469726562 668.331054688 800 640 800 c 0
 631.168945312 800 623.168945312 796.415039062 617.376953125 790.623046875 c 2
 233.376953125 406.623046875 l 2
 213.284179688 386.530273438 227.668945312 352 256 352 c 0
 264.831054688 352 272.831054688 355.584960938 278.623046875 361.376953125 c 2
 662.623046875 745.376953125 l 2
256 416 m 2
 238.338867188 416 224 401.661132812 224 384 c 0
 224 366.338867188 238.338867188 352 256 352 c 2
 512 352 l 2
 529.661132812 352 544 366.338867188 544 384 c 0
 544 401.661132812 529.661132812 416 512 416 c 2
 256 416 l 2
534.623046875 406.623046875 m 2
 514.530273438 426.715820312 480 412.331054688 480 384 c 0
 480 375.168945312 483.584960938 367.168945312 489.376953125 361.376953125 c 2
 617.376953125 233.376953125 l 2
 637.469726562 213.284179688 672 227.668945312 672 256 c 0
 672 264.831054688 668.415039062 272.831054688 662.623046875 278.623046875 c 2
 534.623046875 406.623046875 l 2
672 256 m 2
 672 273.661132812 657.661132812 288 640 288 c 0
 622.338867188 288 608 273.661132812 608 256 c 2
 608 128 l 2
 608 110.338867188 622.338867188 96 640 96 c 0
 657.661132812 96 672 110.338867188 672 128 c 2
 672 256 l 2
662.623046875 105.376953125 m 2
 682.715820312 125.469726562 668.331054688 160 640 160 c 0
 631.168945312 160 623.168945312 156.415039062 617.376953125 150.623046875 c 2
 489.376953125 22.623046875 l 2
 469.284179688 2.5302734375 483.668945312 -32 512 -32 c 0
 520.831054688 -32 528.831054688 -28.4150390625 534.623046875 -22.623046875 c 2
 662.623046875 105.376953125 l 2
512 -32 m 2
 529.661132812 -32 544 -17.6611328125 544 0 c 0
 544 17.6611328125 529.661132812 32 512 32 c 2
 256 32 l 2
 238.338867188 32 224 17.6611328125 224 0 c 0
 224 -17.6611328125 238.338867188 -32 256 -32 c 2
 512 -32 l 2
233.376953125 -22.623046875 m 2
 253.469726562 -42.7158203125 288 -28.3310546875 288 0 c 0
 288 8.8310546875 284.415039062 16.8310546875 278.623046875 22.623046875 c 2
 150.623046875 150.623046875 l 2
 130.530273438 170.715820312 96 156.331054688 96 128 c 0
 96 119.168945312 99.5849609375 111.168945312 105.376953125 105.376953125 c 2
 233.376953125 -22.623046875 l 2
EndSplineSet
Validated: 37
EndChar

StartChar: four
Encoding: 52 52 6
Width: 768
Flags: HW
LayerCount: 2
Fore
SplineSet
534.623046875 745.376953125 m 2
 554.715820312 765.469726562 540.331054688 800 512 800 c 0
 503.168945312 800 495.168945312 796.415039062 489.376953125 790.623046875 c 2
 105.376953125 406.623046875 l 2
 85.2841796875 386.530273438 99.6689453125 352 128 352 c 0
 136.831054688 352 144.831054688 355.584960938 150.623046875 361.376953125 c 2
 534.623046875 745.376953125 l 2
160 384 m 2
 160 401.661132812 145.661132812 416 128 416 c 0
 110.338867188 416 96 401.661132812 96 384 c 2
 96 256 l 2
 96 238.338867188 110.338867188 224 128 224 c 0
 145.661132812 224 160 238.338867188 160 256 c 2
 160 384 l 2
128 288 m 2
 110.338867188 288 96 273.661132812 96 256 c 0
 96 238.338867188 110.338867188 224 128 224 c 2
 640 224 l 2
 657.661132812 224 672 238.338867188 672 256 c 0
 672 273.661132812 657.661132812 288 640 288 c 2
 128 288 l 2
672 512 m 2
 672 529.661132812 657.661132812 544 640 544 c 0
 622.338867188 544 608 529.661132812 608 512 c 2
 608 0 l 2
 608 -17.6611328125 622.338867188 -32 640 -32 c 0
 657.661132812 -32 672 -17.6611328125 672 0 c 2
 672 512 l 2
EndSplineSet
Validated: 37
EndChar

StartChar: five
Encoding: 53 53 7
Width: 768
Flags: HW
LayerCount: 2
Fore
SplineSet
640 736 m 2
 657.661132812 736 672 750.338867188 672 768 c 0
 672 785.661132812 657.661132812 800 640 800 c 2
 128 800 l 2
 110.338867188 800 96 785.661132812 96 768 c 0
 96 750.338867188 110.338867188 736 128 736 c 2
 640 736 l 2
160 768 m 2
 160 785.661132812 145.661132812 800 128 800 c 0
 110.338867188 800 96 785.661132812 96 768 c 2
 96 384 l 2
 96 366.338867188 110.338867188 352 128 352 c 0
 145.661132812 352 160 366.338867188 160 384 c 2
 160 768 l 2
128 416 m 2
 110.338867188 416 96 401.661132812 96 384 c 0
 96 366.338867188 110.338867188 352 128 352 c 2
 512 352 l 2
 529.661132812 352 544 366.338867188 544 384 c 0
 544 401.661132812 529.661132812 416 512 416 c 2
 128 416 l 2
534.623046875 406.623046875 m 2
 514.530273438 426.715820312 480 412.331054688 480 384 c 0
 480 375.168945312 483.584960938 367.168945312 489.376953125 361.376953125 c 2
 617.376953125 233.376953125 l 2
 637.469726562 213.284179688 672 227.668945312 672 256 c 0
 672 264.831054688 668.415039062 272.831054688 662.623046875 278.623046875 c 2
 534.623046875 406.623046875 l 2
672 256 m 2
 672 273.661132812 657.661132812 288 640 288 c 0
 622.338867188 288 608 273.661132812 608 256 c 2
 608 128 l 2
 608 110.338867188 622.338867188 96 640 96 c 0
 657.661132812 96 672 110.338867188 672 128 c 2
 672 256 l 2
662.623046875 105.376953125 m 2
 682.715820312 125.469726562 668.331054688 160 640 160 c 0
 631.168945312 160 623.168945312 156.415039062 617.376953125 150.623046875 c 2
 489.376953125 22.623046875 l 2
 469.284179688 2.5302734375 483.668945312 -32 512 -32 c 0
 520.831054688 -32 528.831054688 -28.4150390625 534.623046875 -22.623046875 c 2
 662.623046875 105.376953125 l 2
512 -32 m 2
 529.661132812 -32 544 -17.6611328125 544 0 c 0
 544 17.6611328125 529.661132812 32 512 32 c 2
 256 32 l 2
 238.338867188 32 224 17.6611328125 224 0 c 0
 224 -17.6611328125 238.338867188 -32 256 -32 c 2
 512 -32 l 2
233.376953125 -22.623046875 m 2
 253.469726562 -42.7158203125 288 -28.3310546875 288 0 c 0
 288 8.8310546875 284.415039062 16.8310546875 278.623046875 22.623046875 c 2
 150.623046875 150.623046875 l 2
 130.530273438 170.715820312 96 156.331054688 96 128 c 0
 96 119.168945312 99.5849609375 111.168945312 105.376953125 105.376953125 c 2
 233.376953125 -22.623046875 l 2
EndSplineSet
Validated: 37
EndChar

StartChar: six
Encoding: 54 54 8
Width: 768
Flags: HW
LayerCount: 2
Fore
SplineSet
534.623046875 745.376953125 m 2
 554.715820312 765.469726562 540.331054688 800 512 800 c 0
 503.168945312 800 495.168945312 796.415039062 489.376953125 790.623046875 c 2
 105.376953125 406.623046875 l 2
 85.2841796875 386.530273438 99.6689453125 352 128 352 c 0
 136.831054688 352 144.831054688 355.584960938 150.623046875 361.376953125 c 2
 534.623046875 745.376953125 l 2
160 384 m 2
 160 401.661132812 145.661132812 416 128 416 c 0
 110.338867188 416 96 401.661132812 96 384 c 2
 96 128 l 2
 96 110.338867188 110.338867188 96 128 96 c 0
 145.661132812 96 160 110.338867188 160 128 c 2
 160 384 l 2
150.623046875 150.623046875 m 2
 130.530273438 170.715820312 96 156.331054688 96 128 c 0
 96 119.168945312 99.5849609375 111.168945312 105.376953125 105.376953125 c 2
 233.376953125 -22.623046875 l 2
 253.469726562 -42.7158203125 288 -28.3310546875 288 0 c 0
 288 8.8310546875 284.415039062 16.8310546875 278.623046875 22.623046875 c 2
 150.623046875 150.623046875 l 2
256 32 m 2
 238.338867188 32 224 17.6611328125 224 0 c 0
 224 -17.6611328125 238.338867188 -32 256 -32 c 2
 512 -32 l 2
 529.661132812 -32 544 -17.6611328125 544 0 c 0
 544 17.6611328125 529.661132812 32 512 32 c 2
 256 32 l 2
489.376953125 22.623046875 m 2
 469.284179688 2.5302734375 483.668945312 -32 512 -32 c 0
 520.831054688 -32 528.831054688 -28.4150390625 534.623046875 -22.623046875 c 2
 662.623046875 105.376953125 l 2
 682.715820312 125.469726562 668.331054688 160 640 160 c 0
 631.168945312 160 623.168945312 156.415039062 617.376953125 150.623046875 c 2
 489.376953125 22.623046875 l 2
608 128 m 2
 608 110.338867188 622.338867188 96 640 96 c 0
 657.661132812 96 672 110.338867188 672 128 c 2
 672 256 l 2
 672 273.661132812 657.661132812 288 640 288 c 0
 622.338867188 288 608 273.661132812 608 256 c 2
 608 128 l 2
617.376953125 233.376953125 m 2
 637.469726562 213.284179688 672 227.668945312 672 256 c 0
 672 264.831054688 668.415039062 272.831054688 662.623046875 278.623046875 c 2
 534.623046875 406.623046875 l 2
 514.530273438 426.715820312 480 412.331054688 480 384 c 0
 480 375.168945312 483.584960938 367.168945312 489.376953125 361.376953125 c 2
 617.376953125 233.376953125 l 2
512 352 m 2
 529.661132812 352 544 366.338867188 544 384 c 0
 544 401.661132812 529.661132812 416 512 416 c 2
 128 416 l 2
 110.338867188 416 96 401.661132812 96 384 c 0
 96 366.338867188 110.338867188 352 128 352 c 2
 512 352 l 2
EndSplineSet
Validated: 37
EndChar

StartChar: seven
Encoding: 55 55 9
Width: 768
Flags: HW
LayerCount: 2
Fore
SplineSet
128 800 m 2
 110.338867188 800 96 785.661132812 96 768 c 0
 96 750.338867188 110.338867188 736 128 736 c 2
 640 736 l 2
 657.661132812 736 672 750.338867188 672 768 c 0
 672 785.661132812 657.661132812 800 640 800 c 2
 128 800 l 2
672 768 m 2
 672 785.661132812 657.661132812 800 640 800 c 0
 622.338867188 800 608 785.661132812 608 768 c 2
 608 512 l 2
 608 494.338867188 622.338867188 480 640 480 c 0
 657.661132812 480 672 494.338867188 672 512 c 2
 672 768 l 2
662.623046875 489.376953125 m 2
 682.715820312 509.469726562 668.331054688 544 640 544 c 0
 631.168945312 544 623.168945312 540.415039062 617.376953125 534.623046875 c 2
 105.376953125 22.623046875 l 2
 85.2841796875 2.5302734375 99.6689453125 -32 128 -32 c 0
 136.831054688 -32 144.831054688 -28.4150390625 150.623046875 -22.623046875 c 2
 662.623046875 489.376953125 l 2
EndSplineSet
Validated: 37
EndChar

StartChar: eight
Encoding: 56 56 10
Width: 768
Flags: HW
LayerCount: 2
Fore
SplineSet
105.376953125 662.623046875 m 2
 85.2841796875 642.530273438 99.6689453125 608 128 608 c 0
 136.831054688 608 144.831054688 611.584960938 150.623046875 617.376953125 c 2
 278.623046875 745.376953125 l 2
 298.715820312 765.469726562 284.331054688 800 256 800 c 0
 247.168945312 800 239.168945312 796.415039062 233.376953125 790.623046875 c 2
 105.376953125 662.623046875 l 2
256 800 m 2
 238.338867188 800 224 785.661132812 224 768 c 0
 224 750.338867188 238.338867188 736 256 736 c 2
 512 736 l 2
 529.661132812 736 544 750.338867188 544 768 c 0
 544 785.661132812 529.661132812 800 512 800 c 2
 256 800 l 2
534.623046875 790.623046875 m 2
 514.530273438 810.715820312 480 796.331054688 480 768 c 0
 480 759.168945312 483.584960938 751.168945312 489.376953125 745.376953125 c 2
 617.376953125 617.376953125 l 2
 637.469726562 597.284179688 672 611.668945312 672 640 c 0
 672 648.831054688 668.415039062 656.831054688 662.623046875 662.623046875 c 2
 534.623046875 790.623046875 l 2
662.623046875 617.376953125 m 2
 682.715820312 637.469726562 668.331054688 672 640 672 c 0
 631.168945312 672 623.168945312 668.415039062 617.376953125 662.623046875 c 2
 105.376953125 150.623046875 l 2
 85.2841796875 130.530273438 99.6689453125 96 128 96 c 0
 136.831054688 96 144.831054688 99.5849609375 150.623046875 105.376953125 c 2
 662.623046875 617.376953125 l 2
150.623046875 150.623046875 m 2
 130.530273438 170.715820312 96 156.331054688 96 128 c 0
 96 119.168945312 99.5849609375 111.168945312 105.376953125 105.376953125 c 2
 233.376953125 -22.623046875 l 2
 253.469726562 -42.7158203125 288 -28.3310546875 288 0 c 0
 288 8.8310546875 284.415039062 16.8310546875 278.623046875 22.623046875 c 2
 150.623046875 150.623046875 l 2
256 32 m 2
 238.338867188 32 224 17.6611328125 224 0 c 0
 224 -17.6611328125 238.338867188 -32 256 -32 c 2
 512 -32 l 2
 529.661132812 -32 544 -17.6611328125 544 0 c 0
 544 17.6611328125 529.661132812 32 512 32 c 2
 256 32 l 2
489.376953125 22.623046875 m 2
 469.284179688 2.5302734375 483.668945312 -32 512 -32 c 0
 520.831054688 -32 528.831054688 -28.4150390625 534.623046875 -22.623046875 c 2
 662.623046875 105.376953125 l 2
 682.715820312 125.469726562 668.331054688 160 640 160 c 0
 631.168945312 160 623.168945312 156.415039062 617.376953125 150.623046875 c 2
 489.376953125 22.623046875 l 2
617.376953125 105.376953125 m 2
 637.469726562 85.2841796875 672 99.6689453125 672 128 c 0
 672 136.831054688 668.415039062 144.831054688 662.623046875 150.623046875 c 2
 150.623046875 662.623046875 l 2
 130.530273438 682.715820312 96 668.331054688 96 640 c 0
 96 631.168945312 99.5849609375 623.168945312 105.376953125 617.376953125 c 2
 617.376953125 105.376953125 l 2
EndSplineSet
Validated: 37
EndChar

StartChar: nine
Encoding: 57 57 11
Width: 768
Flags: HW
LayerCount: 2
Fore
SplineSet
233.376953125 22.623046875 m 2
 213.284179688 2.5302734375 227.668945312 -32 256 -32 c 0
 264.831054688 -32 272.831054688 -28.4150390625 278.623046875 -22.623046875 c 2
 662.623046875 361.376953125 l 2
 682.715820312 381.469726562 668.331054688 416 640 416 c 0
 631.168945312 416 623.168945312 412.415039062 617.376953125 406.623046875 c 2
 233.376953125 22.623046875 l 2
608 384 m 2
 608 366.338867188 622.338867188 352 640 352 c 0
 657.661132812 352 672 366.338867188 672 384 c 2
 672 640 l 2
 672 657.661132812 657.661132812 672 640 672 c 0
 622.338867188 672 608 657.661132812 608 640 c 2
 608 384 l 2
617.376953125 617.376953125 m 2
 637.469726562 597.284179688 672 611.668945312 672 640 c 0
 672 648.831054688 668.415039062 656.831054688 662.623046875 662.623046875 c 2
 534.623046875 790.623046875 l 2
 514.530273438 810.715820312 480 796.331054688 480 768 c 0
 480 759.168945312 483.584960938 751.168945312 489.376953125 745.376953125 c 2
 617.376953125 617.376953125 l 2
512 736 m 2
 529.661132812 736 544 750.338867188 544 768 c 0
 544 785.661132812 529.661132812 800 512 800 c 2
 256 800 l 2
 238.338867188 800 224 785.661132812 224 768 c 0
 224 750.338867188 238.338867188 736 256 736 c 2
 512 736 l 2
278.623046875 745.376953125 m 2
 298.715820312 765.469726562 284.331054688 800 256 800 c 0
 247.168945312 800 239.168945312 796.415039062 233.376953125 790.623046875 c 2
 105.376953125 662.623046875 l 2
 85.2841796875 642.530273438 99.6689453125 608 128 608 c 0
 136.831054688 608 144.831054688 611.584960938 150.623046875 617.376953125 c 2
 278.623046875 745.376953125 l 2
160 640 m 2
 160 657.661132812 145.661132812 672 128 672 c 0
 110.338867188 672 96 657.661132812 96 640 c 2
 96 512 l 2
 96 494.338867188 110.338867188 480 128 480 c 0
 145.661132812 480 160 494.338867188 160 512 c 2
 160 640 l 2
150.623046875 534.623046875 m 2
 130.530273438 554.715820312 96 540.331054688 96 512 c 0
 96 503.168945312 99.5849609375 495.168945312 105.376953125 489.376953125 c 2
 233.376953125 361.376953125 l 2
 253.469726562 341.284179688 288 355.668945312 288 384 c 0
 288 392.831054688 284.415039062 400.831054688 278.623046875 406.623046875 c 2
 150.623046875 534.623046875 l 2
256 416 m 2
 238.338867188 416 224 401.661132812 224 384 c 0
 224 366.338867188 238.338867188 352 256 352 c 2
 640 352 l 2
 657.661132812 352 672 366.338867188 672 384 c 0
 672 401.661132812 657.661132812 416 640 416 c 2
 256 416 l 2
EndSplineSet
Validated: 37
EndChar

StartChar: degree
Encoding: 176 176 12
Width: 640
Flags: HW
LayerCount: 2
Fore
SplineSet
105.376953125 790.623046875 m 2
 85.2841796875 770.530273438 99.6689453125 736 128 736 c 0
 136.831054688 736 144.831054688 739.584960938 150.623046875 745.376953125 c 2
 278.623046875 873.376953125 l 2
 298.715820312 893.469726562 284.331054688 928 256 928 c 0
 247.168945312 928 239.168945312 924.415039062 233.376953125 918.623046875 c 2
 105.376953125 790.623046875 l 2
256 928 m 2
 238.338867188 928 224 913.661132812 224 896 c 0
 224 878.338867188 238.338867188 864 256 864 c 2
 384 864 l 2
 401.661132812 864 416 878.338867188 416 896 c 0
 416 913.661132812 401.661132812 928 384 928 c 2
 256 928 l 2
406.623046875 918.623046875 m 2
 386.530273438 938.715820312 352 924.331054688 352 896 c 0
 352 887.168945312 355.584960938 879.168945312 361.376953125 873.376953125 c 2
 489.376953125 745.376953125 l 2
 509.469726562 725.284179688 544 739.668945312 544 768 c 0
 544 776.831054688 540.415039062 784.831054688 534.623046875 790.623046875 c 2
 406.623046875 918.623046875 l 2
544 768 m 2
 544 785.661132812 529.661132812 800 512 800 c 0
 494.338867188 800 480 785.661132812 480 768 c 2
 480 640 l 2
 480 622.338867188 494.338867188 608 512 608 c 0
 529.661132812 608 544 622.338867188 544 640 c 2
 544 768 l 2
534.623046875 617.376953125 m 2
 554.715820312 637.469726562 540.331054688 672 512 672 c 0
 503.168945312 672 495.168945312 668.415039062 489.376953125 662.623046875 c 2
 361.376953125 534.623046875 l 2
 341.284179688 514.530273438 355.668945312 480 384 480 c 0
 392.831054688 480 400.831054688 483.584960938 406.623046875 489.376953125 c 2
 534.623046875 617.376953125 l 2
384 480 m 2
 401.661132812 480 416 494.338867188 416 512 c 0
 416 529.661132812 401.661132812 544 384 544 c 2
 256 544 l 2
 238.338867188 544 224 529.661132812 224 512 c 0
 224 494.338867188 238.338867188 480 256 480 c 2
 384 480 l 2
233.376953125 489.376953125 m 2
 253.469726562 469.284179688 288 483.668945312 288 512 c 0
 288 520.831054688 284.415039062 528.831054688 278.623046875 534.623046875 c 2
 150.623046875 662.623046875 l 2
 130.530273438 682.715820312 96 668.331054688 96 640 c 0
 96 631.168945312 99.5849609375 623.168945312 105.376953125 617.376953125 c 2
 233.376953125 489.376953125 l 2
96 640 m 2
 96 622.338867188 110.338867188 608 128 608 c 0
 145.661132812 608 160 622.338867188 160 640 c 2
 160 768 l 2
 160 785.661132812 145.661132812 800 128 800 c 0
 110.338867188 800 96 785.661132812 96 768 c 2
 96 640 l 2
EndSplineSet
EndChar

StartChar: period
Encoding: 46 46 13
Width: 384
Flags: HW
LayerCount: 2
Fore
SplineSet
128 160 m 2
 110.338867188 160 96 145.661132812 96 128 c 0
 96 110.338867188 110.338867188 96 128 96 c 2
 256 96 l 2
 273.661132812 96 288 110.338867188 288 128 c 0
 288 145.661132812 273.661132812 160 256 160 c 2
 128 160 l 2
288 128 m 2
 288 145.661132812 273.661132812 160 256 160 c 0
 238.338867188 160 224 145.661132812 224 128 c 2
 224 0 l 2
 224 -17.6611328125 238.338867188 -32 256 -32 c 0
 273.661132812 -32 288 -17.6611328125 288 0 c 2
 288 128 l 2
256 -32 m 2
 273.661132812 -32 288 -17.6611328125 288 0 c 0
 288 17.6611328125 273.661132812 32 256 32 c 2
 128 32 l 2
 110.338867188 32 96 17.6611328125 96 0 c 0
 96 -17.6611328125 110.338867188 -32 128 -32 c 2
 256 -32 l 2
96 0 m 2
 96 -17.6611328125 110.338867188 -32 128 -32 c 0
 145.661132812 -32 160 -17.6611328125 160 0 c 2
 160 128 l 2
 160 145.661132812 145.661132812 160 128 160 c 0
 110.338867188 160 96 145.661132812 96 128 c 2
 96 0 l 2
EndSplineSet
EndChar

StartChar: plus
Encoding: 43 43 14
Width: 768
Flags: HW
LayerCount: 2
Fore
SplineSet
128 416 m 2
 110.338867188 416 96 401.661132812 96 384 c 0
 96 366.338867188 110.338867188 352 128 352 c 2
 640 352 l 2
 657.661132812 352 672 366.338867188 672 384 c 0
 672 401.661132812 657.661132812 416 640 416 c 2
 128 416 l 2
416 640 m 2
 416 657.661132812 401.661132812 672 384 672 c 0
 366.338867188 672 352 657.661132812 352 640 c 2
 352 128 l 2
 352 110.338867188 366.338867188 96 384 96 c 0
 401.661132812 96 416 110.338867188 416 128 c 2
 416 640 l 2
EndSplineSet
EndChar

StartChar: hyphen
Encoding: 45 45 15
Width: 768
Flags: HW
LayerCount: 2
Fore
SplineSet
128 416 m 2
 110.338867188 416 96 401.661132812 96 384 c 0
 96 366.338867188 110.338867188 352 128 352 c 2
 640 352 l 2
 657.661132812 352 672 366.338867188 672 384 c 0
 672 401.661132812 657.661132812 416 640 416 c 2
 128 416 l 2
EndSplineSet
EndChar

StartChar: slash
Encoding: 47 47 16
Width: 512
Flags: HW
LayerCount: 2
Fore
SplineSet
254 1099 m 1053
536.592773438 747.534179688 m 2
 553.885742188 768.28515625 539.000976562 800 512 800 c 0
 502.120117188 800 493.279296875 795.512695312 487.407226562 788.465820312 c 2
 -152.592773438 20.4658203125 l 2
 -169.885742188 -0.28515625 -155.000976562 -32 -128 -32 c 0
 -118.120117188 -32 -109.279296875 -27.5126953125 -103.407226562 -20.4658203125 c 2
 536.592773438 747.534179688 l 2
EndSplineSet
EndChar

StartChar: comma
Encoding: 44 44 17
Width: 384
Flags: HW
LayerCount: 2
Fore
SplineSet
128 160 m 2
 110.338867188 160 96 145.661132812 96 128 c 0
 96 110.338867188 110.338867188 96 128 96 c 2
 256 96 l 2
 273.661132812 96 288 110.338867188 288 128 c 0
 288 145.661132812 273.661132812 160 256 160 c 2
 128 160 l 2
288 128 m 2
 288 145.661132812 273.661132812 160 256 160 c 0
 238.338867188 160 224 145.661132812 224 128 c 2
 224 0 l 2
 224 -17.6611328125 238.338867188 -32 256 -32 c 0
 273.661132812 -32 288 -17.6611328125 288 0 c 2
 288 128 l 2
256 -32 m 2
 273.661132812 -32 288 -17.6611328125 288 0 c 0
 288 17.6611328125 273.661132812 32 256 32 c 2
 128 32 l 2
 110.338867188 32 96 17.6611328125 96 0 c 0
 96 -17.6611328125 110.338867188 -32 128 -32 c 2
 256 -32 l 2
96 0 m 2
 96 -17.6611328125 110.338867188 -32 128 -32 c 0
 145.661132812 -32 160 -17.6611328125 160 0 c 2
 160 128 l 2
 160 145.661132812 145.661132812 160 128 160 c 0
 110.338867188 160 96 145.661132812 96 128 c 2
 96 0 l 2
278.623046875 -22.623046875 m 2
 298.715820312 -2.5302734375 284.331054688 32 256 32 c 0
 247.168945312 32 239.168945312 28.4150390625 233.376953125 22.623046875 c 2
 105.376953125 -105.376953125 l 2
 85.2841796875 -125.469726562 99.6689453125 -160 128 -160 c 0
 136.831054688 -160 144.831054688 -156.415039062 150.623046875 -150.623046875 c 2
 278.623046875 -22.623046875 l 2
EndSplineSet
EndChar

StartChar: colon
Encoding: 58 58 18
Width: 384
Flags: HW
LayerCount: 2
Fore
SplineSet
128 800 m 2
 110.338867188 800 96 785.661132812 96 768 c 0
 96 750.338867188 110.338867188 736 128 736 c 2
 256 736 l 2
 273.661132812 736 288 750.338867188 288 768 c 0
 288 785.661132812 273.661132812 800 256 800 c 2
 128 800 l 2
288 768 m 2
 288 785.661132812 273.661132812 800 256 800 c 0
 238.338867188 800 224 785.661132812 224 768 c 2
 224 640 l 2
 224 622.338867188 238.338867188 608 256 608 c 0
 273.661132812 608 288 622.338867188 288 640 c 2
 288 768 l 2
256 608 m 2
 273.661132812 608 288 622.338867188 288 640 c 0
 288 657.661132812 273.661132812 672 256 672 c 2
 128 672 l 2
 110.338867188 672 96 657.661132812 96 640 c 0
 96 622.338867188 110.338867188 608 128 608 c 2
 256 608 l 2
96 640 m 2
 96 622.338867188 110.338867188 608 128 608 c 0
 145.661132812 608 160 622.338867188 160 640 c 2
 160 768 l 2
 160 785.661132812 145.661132812 800 128 800 c 0
 110.338867188 800 96 785.661132812 96 768 c 2
 96 640 l 2
128 160 m 2
 110.338867188 160 96 145.661132812 96 128 c 0
 96 110.338867188 110.338867188 96 128 96 c 2
 256 96 l 2
 273.661132812 96 288 110.338867188 288 128 c 0
 288 145.661132812 273.661132812 160 256 160 c 2
 128 160 l 2
288 128 m 2
 288 145.661132812 273.661132812 160 256 160 c 0
 238.338867188 160 224 145.661132812 224 128 c 2
 224 0 l 2
 224 -17.6611328125 238.338867188 -32 256 -32 c 0
 273.661132812 -32 288 -17.6611328125 288 0 c 2
 288 128 l 2
256 -32 m 2
 273.661132812 -32 288 -17.6611328125 288 0 c 0
 288 17.6611328125 273.661132812 32 256 32 c 2
 128 32 l 2
 110.338867188 32 96 17.6611328125 96 0 c 0
 96 -17.6611328125 110.338867188 -32 128 -32 c 2
 256 -32 l 2
96 0 m 2
 96 -17.6611328125 110.338867188 -32 128 -32 c 0
 145.661132812 -32 160 -17.6611328125 160 0 c 2
 160 128 l 2
 160 145.661132812 145.661132812 160 128 160 c 0
 110.338867188 160 96 145.661132812 96 128 c 2
 96 0 l 2
EndSplineSet
EndChar

StartChar: B
Encoding: 66 66 19
Width: 768
Flags: HW
LayerCount: 2
Fore
SplineSet
128 800 m 2
 110.338867188 800 96 785.661132812 96 768 c 0
 96 750.338867188 110.338867188 736 128 736 c 2
 512 736 l 2
 529.661132812 736 544 750.338867188 544 768 c 0
 544 785.661132812 529.661132812 800 512 800 c 2
 128 800 l 2
534.623046875 790.623046875 m 2
 514.530273438 810.715820312 480 796.331054688 480 768 c 0
 480 759.168945312 483.584960938 751.168945312 489.376953125 745.376953125 c 2
 617.376953125 617.376953125 l 2
 637.469726562 597.284179688 672 611.668945312 672 640 c 0
 672 648.831054688 668.415039062 656.831054688 662.623046875 662.623046875 c 2
 534.623046875 790.623046875 l 2
672 640 m 2
 672 657.661132812 657.661132812 672 640 672 c 0
 622.338867188 672 608 657.661132812 608 640 c 2
 608 512 l 2
 608 494.338867188 622.338867188 480 640 480 c 0
 657.661132812 480 672 494.338867188 672 512 c 2
 672 640 l 2
662.623046875 489.376953125 m 2
 682.715820312 509.469726562 668.331054688 544 640 544 c 0
 631.168945312 544 623.168945312 540.415039062 617.376953125 534.623046875 c 2
 489.376953125 406.623046875 l 2
 469.284179688 386.530273438 483.668945312 352 512 352 c 0
 520.831054688 352 528.831054688 355.584960938 534.623046875 361.376953125 c 2
 662.623046875 489.376953125 l 2
534.623046875 406.623046875 m 2
 514.530273438 426.715820312 480 412.331054688 480 384 c 0
 480 375.168945312 483.584960938 367.168945312 489.376953125 361.376953125 c 2
 617.376953125 233.376953125 l 2
 637.469726562 213.284179688 672 227.668945312 672 256 c 0
 672 264.831054688 668.415039062 272.831054688 662.623046875 278.623046875 c 2
 534.623046875 406.623046875 l 2
672 256 m 2
 672 273.661132812 657.661132812 288 640 288 c 0
 622.338867188 288 608 273.661132812 608 256 c 2
 608 128 l 2
 608 110.338867188 622.338867188 96 640 96 c 0
 657.661132812 96 672 110.338867188 672 128 c 2
 672 256 l 2
662.623046875 105.376953125 m 2
 682.715820312 125.469726562 668.331054688 160 640 160 c 0
 631.168945312 160 623.168945312 156.415039062 617.376953125 150.623046875 c 2
 489.376953125 22.623046875 l 2
 469.284179688 2.5302734375 483.668945312 -32 512 -32 c 0
 520.831054688 -32 528.831054688 -28.4150390625 534.623046875 -22.623046875 c 2
 662.623046875 105.376953125 l 2
512 -32 m 2
 529.661132812 -32 544 -17.6611328125 544 0 c 0
 544 17.6611328125 529.661132812 32 512 32 c 2
 128 32 l 2
 110.338867188 32 96 17.6611328125 96 0 c 0
 96 -17.6611328125 110.338867188 -32 128 -32 c 2
 512 -32 l 2
96 0 m 2
 96 -17.6611328125 110.338867188 -32 128 -32 c 0
 145.661132812 -32 160 -17.6611328125 160 0 c 2
 160 768 l 2
 160 785.661132812 145.661132812 800 128 800 c 0
 110.338867188 800 96 785.661132812 96 768 c 2
 96 0 l 2
128 416 m 2
 110.338867188 416 96 401.661132812 96 384 c 0
 96 366.338867188 110.338867188 352 128 352 c 2
 512 352 l 2
 529.661132812 352 544 366.338867188 544 384 c 0
 544 401.661132812 529.661132812 416 512 416 c 2
 128 416 l 2
EndSplineSet
EndChar

StartChar: uni0412
Encoding: 1042 1042 20
Width: 768
Flags: HW
LayerCount: 2
Fore
SplineSet
128 800 m 2
 110.338867188 800 96 785.661132812 96 768 c 0
 96 750.338867188 110.338867188 736 128 736 c 2
 512 736 l 2
 529.661132812 736 544 750.338867188 544 768 c 0
 544 785.661132812 529.661132812 800 512 800 c 2
 128 800 l 2
534.623046875 790.623046875 m 2
 514.530273438 810.715820312 480 796.331054688 480 768 c 0
 480 759.168945312 483.584960938 751.168945312 489.376953125 745.376953125 c 2
 617.376953125 617.376953125 l 2
 637.469726562 597.284179688 672 611.668945312 672 640 c 0
 672 648.831054688 668.415039062 656.831054688 662.623046875 662.623046875 c 2
 534.623046875 790.623046875 l 2
672 640 m 2
 672 657.661132812 657.661132812 672 640 672 c 0
 622.338867188 672 608 657.661132812 608 640 c 2
 608 512 l 2
 608 494.338867188 622.338867188 480 640 480 c 0
 657.661132812 480 672 494.338867188 672 512 c 2
 672 640 l 2
662.623046875 489.376953125 m 2
 682.715820312 509.469726562 668.331054688 544 640 544 c 0
 631.168945312 544 623.168945312 540.415039062 617.376953125 534.623046875 c 2
 489.376953125 406.623046875 l 2
 469.284179688 386.530273438 483.668945312 352 512 352 c 0
 520.831054688 352 528.831054688 355.584960938 534.623046875 361.376953125 c 2
 662.623046875 489.376953125 l 2
534.623046875 406.623046875 m 2
 514.530273438 426.715820312 480 412.331054688 480 384 c 0
 480 375.168945312 483.584960938 367.168945312 489.376953125 361.376953125 c 2
 617.376953125 233.376953125 l 2
 637.469726562 213.284179688 672 227.668945312 672 256 c 0
 672 264.831054688 668.415039062 272.831054688 662.623046875 278.623046875 c 2
 534.623046875 406.623046875 l 2
672 256 m 2
 672 273.661132812 657.661132812 288 640 288 c 0
 622.338867188 288 608 273.661132812 608 256 c 2
 608 128 l 2
 608 110.338867188 622.338867188 96 640 96 c 0
 657.661132812 96 672 110.338867188 672 128 c 2
 672 256 l 2
662.623046875 105.376953125 m 2
 682.715820312 125.469726562 668.331054688 160 640 160 c 0
 631.168945312 160 623.168945312 156.415039062 617.376953125 150.623046875 c 2
 489.376953125 22.623046875 l 2
 469.284179688 2.5302734375 483.668945312 -32 512 -32 c 0
 520.831054688 -32 528.831054688 -28.4150390625 534.623046875 -22.623046875 c 2
 662.623046875 105.376953125 l 2
512 -32 m 2
 529.661132812 -32 544 -17.6611328125 544 0 c 0
 544 17.6611328125 529.661132812 32 512 32 c 2
 128 32 l 2
 110.338867188 32 96 17.6611328125 96 0 c 0
 96 -17.6611328125 110.338867188 -32 128 -32 c 2
 512 -32 l 2
96 0 m 2
 96 -17.6611328125 110.338867188 -32 128 -32 c 0
 145.661132812 -32 160 -17.6611328125 160 0 c 2
 160 768 l 2
 160 785.661132812 145.661132812 800 128 800 c 0
 110.338867188 800 96 785.661132812 96 768 c 2
 96 0 l 2
128 416 m 2
 110.338867188 416 96 401.661132812 96 384 c 0
 96 366.338867188 110.338867188 352 128 352 c 2
 512 352 l 2
 529.661132812 352 544 366.338867188 544 384 c 0
 544 401.661132812 529.661132812 416 512 416 c 2
 128 416 l 2
EndSplineSet
EndChar

StartChar: uni0411
Encoding: 1041 1041 21
Width: 768
Flags: HW
LayerCount: 2
Fore
SplineSet
640 736 m 2
 657.661132812 736 672 750.338867188 672 768 c 0
 672 785.661132812 657.661132812 800 640 800 c 2
 128 800 l 2
 110.338867188 800 96 785.661132812 96 768 c 0
 96 750.338867188 110.338867188 736 128 736 c 2
 640 736 l 2
160 768 m 2
 160 785.661132812 145.661132812 800 128 800 c 0
 110.338867188 800 96 785.661132812 96 768 c 2
 96 0 l 2
 96 -17.6611328125 110.338867188 -32 128 -32 c 0
 145.661132812 -32 160 -17.6611328125 160 0 c 2
 160 768 l 2
128 32 m 2
 110.338867188 32 96 17.6611328125 96 0 c 0
 96 -17.6611328125 110.338867188 -32 128 -32 c 2
 512 -32 l 2
 529.661132812 -32 544 -17.6611328125 544 0 c 0
 544 17.6611328125 529.661132812 32 512 32 c 2
 128 32 l 2
489.376953125 22.623046875 m 2
 469.284179688 2.5302734375 483.668945312 -32 512 -32 c 0
 520.831054688 -32 528.831054688 -28.4150390625 534.623046875 -22.623046875 c 2
 662.623046875 105.376953125 l 2
 682.715820312 125.469726562 668.331054688 160 640 160 c 0
 631.168945312 160 623.168945312 156.415039062 617.376953125 150.623046875 c 2
 489.376953125 22.623046875 l 2
608 128 m 2
 608 110.338867188 622.338867188 96 640 96 c 0
 657.661132812 96 672 110.338867188 672 128 c 2
 672 256 l 2
 672 273.661132812 657.661132812 288 640 288 c 0
 622.338867188 288 608 273.661132812 608 256 c 2
 608 128 l 2
617.376953125 233.376953125 m 2
 637.469726562 213.284179688 672 227.668945312 672 256 c 0
 672 264.831054688 668.415039062 272.831054688 662.623046875 278.623046875 c 2
 534.623046875 406.623046875 l 2
 514.530273438 426.715820312 480 412.331054688 480 384 c 0
 480 375.168945312 483.584960938 367.168945312 489.376953125 361.376953125 c 2
 617.376953125 233.376953125 l 2
512 352 m 2
 529.661132812 352 544 366.338867188 544 384 c 0
 544 401.661132812 529.661132812 416 512 416 c 2
 128 416 l 2
 110.338867188 416 96 401.661132812 96 384 c 0
 96 366.338867188 110.338867188 352 128 352 c 2
 512 352 l 2
EndSplineSet
EndChar

StartChar: uni0421
Encoding: 1057 1057 22
Width: 768
Flags: HW
LayerCount: 2
Fore
SplineSet
617.376953125 617.376953125 m 2
 637.469726562 597.284179688 672 611.668945312 672 640 c 0
 672 648.831054688 668.415039062 656.831054688 662.623046875 662.623046875 c 2
 534.623046875 790.623046875 l 2
 514.530273438 810.715820312 480 796.331054688 480 768 c 0
 480 759.168945312 483.584960938 751.168945312 489.376953125 745.376953125 c 2
 617.376953125 617.376953125 l 2
512 736 m 2
 529.661132812 736 544 750.338867188 544 768 c 0
 544 785.661132812 529.661132812 800 512 800 c 2
 256 800 l 2
 238.338867188 800 224 785.661132812 224 768 c 0
 224 750.338867188 238.338867188 736 256 736 c 2
 512 736 l 2
278.623046875 745.376953125 m 2
 298.715820312 765.469726562 284.331054688 800 256 800 c 0
 247.168945312 800 239.168945312 796.415039062 233.376953125 790.623046875 c 2
 105.376953125 662.623046875 l 2
 85.2841796875 642.530273438 99.6689453125 608 128 608 c 0
 136.831054688 608 144.831054688 611.584960938 150.623046875 617.376953125 c 2
 278.623046875 745.376953125 l 2
160 640 m 2
 160 657.661132812 145.661132812 672 128 672 c 0
 110.338867188 672 96 657.661132812 96 640 c 2
 96 128 l 2
 96 110.338867188 110.338867188 96 128 96 c 0
 145.661132812 96 160 110.338867188 160 128 c 2
 160 640 l 2
150.623046875 150.623046875 m 2
 130.530273438 170.715820312 96 156.331054688 96 128 c 0
 96 119.168945312 99.5849609375 111.168945312 105.376953125 105.376953125 c 2
 233.376953125 -22.623046875 l 2
 253.469726562 -42.7158203125 288 -28.3310546875 288 0 c 0
 288 8.8310546875 284.415039062 16.8310546875 278.623046875 22.623046875 c 2
 150.623046875 150.623046875 l 2
256 32 m 2
 238.338867188 32 224 17.6611328125 224 0 c 0
 224 -17.6611328125 238.338867188 -32 256 -32 c 2
 512 -32 l 2
 529.661132812 -32 544 -17.6611328125 544 0 c 0
 544 17.6611328125 529.661132812 32 512 32 c 2
 256 32 l 2
489.376953125 22.623046875 m 2
 469.284179688 2.5302734375 483.668945312 -32 512 -32 c 0
 520.831054688 -32 528.831054688 -28.4150390625 534.623046875 -22.623046875 c 2
 662.623046875 105.376953125 l 2
 682.715820312 125.469726562 668.331054688 160 640 160 c 0
 631.168945312 160 623.168945312 156.415039062 617.376953125 150.623046875 c 2
 489.376953125 22.623046875 l 2
EndSplineSet
EndChar

StartChar: C
Encoding: 67 67 23
Width: 768
Flags: HW
LayerCount: 2
Fore
SplineSet
617.376953125 617.376953125 m 2
 637.469726562 597.284179688 672 611.668945312 672 640 c 0
 672 648.831054688 668.415039062 656.831054688 662.623046875 662.623046875 c 2
 534.623046875 790.623046875 l 2
 514.530273438 810.715820312 480 796.331054688 480 768 c 0
 480 759.168945312 483.584960938 751.168945312 489.376953125 745.376953125 c 2
 617.376953125 617.376953125 l 2
512 736 m 2
 529.661132812 736 544 750.338867188 544 768 c 0
 544 785.661132812 529.661132812 800 512 800 c 2
 256 800 l 2
 238.338867188 800 224 785.661132812 224 768 c 0
 224 750.338867188 238.338867188 736 256 736 c 2
 512 736 l 2
278.623046875 745.376953125 m 2
 298.715820312 765.469726562 284.331054688 800 256 800 c 0
 247.168945312 800 239.168945312 796.415039062 233.376953125 790.623046875 c 2
 105.376953125 662.623046875 l 2
 85.2841796875 642.530273438 99.6689453125 608 128 608 c 0
 136.831054688 608 144.831054688 611.584960938 150.623046875 617.376953125 c 2
 278.623046875 745.376953125 l 2
160 640 m 2
 160 657.661132812 145.661132812 672 128 672 c 0
 110.338867188 672 96 657.661132812 96 640 c 2
 96 128 l 2
 96 110.338867188 110.338867188 96 128 96 c 0
 145.661132812 96 160 110.338867188 160 128 c 2
 160 640 l 2
150.623046875 150.623046875 m 2
 130.530273438 170.715820312 96 156.331054688 96 128 c 0
 96 119.168945312 99.5849609375 111.168945312 105.376953125 105.376953125 c 2
 233.376953125 -22.623046875 l 2
 253.469726562 -42.7158203125 288 -28.3310546875 288 0 c 0
 288 8.8310546875 284.415039062 16.8310546875 278.623046875 22.623046875 c 2
 150.623046875 150.623046875 l 2
256 32 m 2
 238.338867188 32 224 17.6611328125 224 0 c 0
 224 -17.6611328125 238.338867188 -32 256 -32 c 2
 512 -32 l 2
 529.661132812 -32 544 -17.6611328125 544 0 c 0
 544 17.6611328125 529.661132812 32 512 32 c 2
 256 32 l 2
489.376953125 22.623046875 m 2
 469.284179688 2.5302734375 483.668945312 -32 512 -32 c 0
 520.831054688 -32 528.831054688 -28.4150390625 534.623046875 -22.623046875 c 2
 662.623046875 105.376953125 l 2
 682.715820312 125.469726562 668.331054688 160 640 160 c 0
 631.168945312 160 623.168945312 156.415039062 617.376953125 150.623046875 c 2
 489.376953125 22.623046875 l 2
EndSplineSet
EndChar

StartChar: D
Encoding: 68 68 24
Width: 896
Flags: HW
LayerCount: 2
Fore
SplineSet
128 800 m 2
 110.338867188 800 96 785.661132812 96 768 c 0
 96 750.338867188 110.338867188 736 128 736 c 2
 640 736 l 2
 657.661132812 736 672 750.338867188 672 768 c 0
 672 785.661132812 657.661132812 800 640 800 c 2
 128 800 l 2
662.623046875 790.623046875 m 2
 642.530273438 810.715820312 608 796.331054688 608 768 c 0
 608 759.168945312 611.584960938 751.168945312 617.376953125 745.376953125 c 2
 745.376953125 617.376953125 l 2
 765.469726562 597.284179688 800 611.668945312 800 640 c 0
 800 648.831054688 796.415039062 656.831054688 790.623046875 662.623046875 c 2
 662.623046875 790.623046875 l 2
800 640 m 2
 800 657.661132812 785.661132812 672 768 672 c 0
 750.338867188 672 736 657.661132812 736 640 c 2
 736 128 l 2
 736 110.338867188 750.338867188 96 768 96 c 0
 785.661132812 96 800 110.338867188 800 128 c 2
 800 640 l 2
790.623046875 105.376953125 m 2
 810.715820312 125.469726562 796.331054688 160 768 160 c 0
 759.168945312 160 751.168945312 156.415039062 745.376953125 150.623046875 c 2
 617.376953125 22.623046875 l 2
 597.284179688 2.5302734375 611.668945312 -32 640 -32 c 0
 648.831054688 -32 656.831054688 -28.4150390625 662.623046875 -22.623046875 c 2
 790.623046875 105.376953125 l 2
640 -32 m 2
 657.661132812 -32 672 -17.6611328125 672 0 c 0
 672 17.6611328125 657.661132812 32 640 32 c 2
 128 32 l 2
 110.338867188 32 96 17.6611328125 96 0 c 0
 96 -17.6611328125 110.338867188 -32 128 -32 c 2
 640 -32 l 2
288 768 m 2
 288 785.661132812 273.661132812 800 256 800 c 0
 238.338867188 800 224 785.661132812 224 768 c 2
 224 0 l 2
 224 -17.6611328125 238.338867188 -32 256 -32 c 0
 273.661132812 -32 288 -17.6611328125 288 0 c 2
 288 768 l 2
EndSplineSet
EndChar

StartChar: E
Encoding: 69 69 25
Width: 768
Flags: HW
LayerCount: 2
Fore
SplineSet
640 736 m 2
 657.661132812 736 672 750.338867188 672 768 c 0
 672 785.661132812 657.661132812 800 640 800 c 2
 128 800 l 2
 110.338867188 800 96 785.661132812 96 768 c 0
 96 750.338867188 110.338867188 736 128 736 c 2
 640 736 l 2
160 768 m 2
 160 785.661132812 145.661132812 800 128 800 c 0
 110.338867188 800 96 785.661132812 96 768 c 2
 96 0 l 2
 96 -17.6611328125 110.338867188 -32 128 -32 c 0
 145.661132812 -32 160 -17.6611328125 160 0 c 2
 160 768 l 2
128 32 m 2
 110.338867188 32 96 17.6611328125 96 0 c 0
 96 -17.6611328125 110.338867188 -32 128 -32 c 2
 640 -32 l 2
 657.661132812 -32 672 -17.6611328125 672 0 c 0
 672 17.6611328125 657.661132812 32 640 32 c 2
 128 32 l 2
128 416 m 2
 110.338867188 416 96 401.661132812 96 384 c 0
 96 366.338867188 110.338867188 352 128 352 c 2
 512 352 l 2
 529.661132812 352 544 366.338867188 544 384 c 0
 544 401.661132812 529.661132812 416 512 416 c 2
 128 416 l 2
EndSplineSet
EndChar

StartChar: uni0415
Encoding: 1045 1045 26
Width: 768
Flags: HW
LayerCount: 2
Fore
SplineSet
640 736 m 2
 657.661132812 736 672 750.338867188 672 768 c 0
 672 785.661132812 657.661132812 800 640 800 c 2
 128 800 l 2
 110.338867188 800 96 785.661132812 96 768 c 0
 96 750.338867188 110.338867188 736 128 736 c 2
 640 736 l 2
160 768 m 2
 160 785.661132812 145.661132812 800 128 800 c 0
 110.338867188 800 96 785.661132812 96 768 c 2
 96 0 l 2
 96 -17.6611328125 110.338867188 -32 128 -32 c 0
 145.661132812 -32 160 -17.6611328125 160 0 c 2
 160 768 l 2
128 32 m 2
 110.338867188 32 96 17.6611328125 96 0 c 0
 96 -17.6611328125 110.338867188 -32 128 -32 c 2
 640 -32 l 2
 657.661132812 -32 672 -17.6611328125 672 0 c 0
 672 17.6611328125 657.661132812 32 640 32 c 2
 128 32 l 2
128 416 m 2
 110.338867188 416 96 401.661132812 96 384 c 0
 96 366.338867188 110.338867188 352 128 352 c 2
 512 352 l 2
 529.661132812 352 544 366.338867188 544 384 c 0
 544 401.661132812 529.661132812 416 512 416 c 2
 128 416 l 2
EndSplineSet
EndChar

StartChar: uni0413
Encoding: 1043 1043 27
Width: 768
Flags: HW
LayerCount: 2
Fore
SplineSet
640 736 m 2
 657.661132812 736 672 750.338867188 672 768 c 0
 672 785.661132812 657.661132812 800 640 800 c 2
 128 800 l 2
 110.338867188 800 96 785.661132812 96 768 c 0
 96 750.338867188 110.338867188 736 128 736 c 2
 640 736 l 2
160 768 m 2
 160 785.661132812 145.661132812 800 128 800 c 0
 110.338867188 800 96 785.661132812 96 768 c 2
 96 0 l 2
 96 -17.6611328125 110.338867188 -32 128 -32 c 0
 145.661132812 -32 160 -17.6611328125 160 0 c 2
 160 768 l 2
EndSplineSet
EndChar

StartChar: uni0414
Encoding: 1044 1044 28
Width: 768
Flags: HW
LayerCount: 2
Fore
SplineSet
-32 -128 m 2
 -32 -145.661132812 -17.6611328125 -160 0 -160 c 0
 17.6611328125 -160 32 -145.661132812 32 -128 c 2
 32 0 l 2
 32 17.6611328125 17.6611328125 32 0 32 c 0
 -17.6611328125 32 -32 17.6611328125 -32 0 c 2
 -32 -128 l 2
0 32 m 2
 -17.6611328125 32 -32 17.6611328125 -32 0 c 0
 -32 -17.6611328125 -17.6611328125 -32 0 -32 c 2
 128 -32 l 2
 145.661132812 -32 160 -17.6611328125 160 0 c 0
 160 17.6611328125 145.661132812 32 128 32 c 2
 0 32 l 2
96 0 m 2
 96 -17.6611328125 110.338867188 -32 128 -32 c 0
 145.661132812 -32 160 -17.6611328125 160 0 c 2
 160 512 l 2
 160 529.661132812 145.661132812 544 128 544 c 0
 110.338867188 544 96 529.661132812 96 512 c 2
 96 0 l 2
105.376953125 534.623046875 m 2
 85.2841796875 514.530273438 99.6689453125 480 128 480 c 0
 136.831054688 480 144.831054688 483.584960938 150.623046875 489.376953125 c 2
 406.623046875 745.376953125 l 2
 426.715820312 765.469726562 412.331054688 800 384 800 c 0
 375.168945312 800 367.168945312 796.415039062 361.376953125 790.623046875 c 2
 105.376953125 534.623046875 l 2
384 800 m 2
 366.338867188 800 352 785.661132812 352 768 c 0
 352 750.338867188 366.338867188 736 384 736 c 2
 640 736 l 2
 657.661132812 736 672 750.338867188 672 768 c 0
 672 785.661132812 657.661132812 800 640 800 c 2
 384 800 l 2
672 768 m 2
 672 785.661132812 657.661132812 800 640 800 c 0
 622.338867188 800 608 785.661132812 608 768 c 2
 608 0 l 2
 608 -17.6611328125 622.338867188 -32 640 -32 c 0
 657.661132812 -32 672 -17.6611328125 672 0 c 2
 672 768 l 2
640 32 m 2
 622.338867188 32 608 17.6611328125 608 0 c 0
 608 -17.6611328125 622.338867188 -32 640 -32 c 2
 768 -32 l 2
 785.661132812 -32 800 -17.6611328125 800 0 c 0
 800 17.6611328125 785.661132812 32 768 32 c 2
 640 32 l 2
800 0 m 2
 800 17.6611328125 785.661132812 32 768 32 c 0
 750.338867188 32 736 17.6611328125 736 0 c 2
 736 -128 l 2
 736 -145.661132812 750.338867188 -160 768 -160 c 0
 785.661132812 -160 800 -145.661132812 800 -128 c 2
 800 0 l 2
128 32 m 2
 110.338867188 32 96 17.6611328125 96 0 c 0
 96 -17.6611328125 110.338867188 -32 128 -32 c 2
 640 -32 l 2
 657.661132812 -32 672 -17.6611328125 672 0 c 0
 672 17.6611328125 657.661132812 32 640 32 c 2
 128 32 l 2
EndSplineSet
EndChar

StartChar: uni0416
Encoding: 1046 1046 29
Width: 1024
Flags: H
LayerCount: 2
Fore
SplineSet
160 768 m 2
 160 785.661132812 145.661132812 800 128 800 c 0
 110.338867188 800 96 785.661132812 96 768 c 2
 96 640 l 2
 96 622.338867188 110.338867188 608 128 608 c 0
 145.661132812 608 160 622.338867188 160 640 c 2
 160 768 l 2
150.623046875 662.623046875 m 2
 130.530273438 682.715820312 96 668.331054688 96 640 c 0
 96 631.168945312 99.5849609375 623.168945312 105.376953125 617.376953125 c 2
 361.376953125 361.376953125 l 2
 381.469726562 341.284179688 416 355.668945312 416 384 c 0
 416 392.831054688 412.415039062 400.831054688 406.623046875 406.623046875 c 2
 150.623046875 662.623046875 l 2
406.623046875 361.376953125 m 2
 426.715820312 381.469726562 412.331054688 416 384 416 c 0
 375.168945312 416 367.168945312 412.415039062 361.376953125 406.623046875 c 2
 105.376953125 150.623046875 l 2
 85.2841796875 130.530273438 99.6689453125 96 128 96 c 0
 136.831054688 96 144.831054688 99.5849609375 150.623046875 105.376953125 c 2
 406.623046875 361.376953125 l 2
160 128 m 2
 160 145.661132812 145.661132812 160 128 160 c 0
 110.338867188 160 96 145.661132812 96 128 c 2
 96 0 l 2
 96 -17.6611328125 110.338867188 -32 128 -32 c 0
 145.661132812 -32 160 -17.6611328125 160 0 c 2
 160 128 l 2
928 768 m 2
 928 785.661132812 913.661132812 800 896 800 c 0
 878.338867188 800 864 785.661132812 864 768 c 2
 864 640 l 2
 864 622.338867188 878.338867188 608 896 608 c 0
 913.661132812 608 928 622.338867188 928 640 c 2
 928 768 l 2
918.623046875 617.376953125 m 2
 938.715820312 637.469726562 924.331054688 672 896 672 c 0
 887.168945312 672 879.168945312 668.415039062 873.376953125 662.623046875 c 2
 617.376953125 406.623046875 l 2
 597.284179688 386.530273438 611.668945312 352 640 352 c 0
 648.831054688 352 656.831054688 355.584960938 662.623046875 361.376953125 c 2
 918.623046875 617.376953125 l 2
662.623046875 406.623046875 m 2
 642.530273438 426.715820312 608 412.331054688 608 384 c 0
 608 375.168945312 611.584960938 367.168945312 617.376953125 361.376953125 c 2
 873.376953125 105.376953125 l 2
 893.469726562 85.2841796875 928 99.6689453125 928 128 c 0
 928 136.831054688 924.415039062 144.831054688 918.623046875 150.623046875 c 2
 662.623046875 406.623046875 l 2
928 128 m 2
 928 145.661132812 913.661132812 160 896 160 c 0
 878.338867188 160 864 145.661132812 864 128 c 2
 864 0 l 2
 864 -17.6611328125 878.338867188 -32 896 -32 c 0
 913.661132812 -32 928 -17.6611328125 928 0 c 2
 928 128 l 2
384 416 m 2
 366.338867188 416 352 401.661132812 352 384 c 0
 352 366.338867188 366.338867188 352 384 352 c 2
 640 352 l 2
 657.661132812 352 672 366.338867188 672 384 c 0
 672 401.661132812 657.661132812 416 640 416 c 2
 384 416 l 2
544 768 m 2
 544 785.661132812 529.661132812 800 512 800 c 0
 494.338867188 800 480 785.661132812 480 768 c 2
 480 0 l 2
 480 -17.6611328125 494.338867188 -32 512 -32 c 0
 529.661132812 -32 544 -17.6611328125 544 0 c 2
 544 768 l 2
EndSplineSet
EndChar

StartChar: uni0417
Encoding: 1047 1047 30
Width: 768
Flags: HW
LayerCount: 2
Fore
SplineSet
105.376953125 662.623046875 m 2
 85.2841796875 642.530273438 99.6689453125 608 128 608 c 0
 136.831054688 608 144.831054688 611.584960938 150.623046875 617.376953125 c 2
 278.623046875 745.376953125 l 2
 298.715820312 765.469726562 284.331054688 800 256 800 c 0
 247.168945312 800 239.168945312 796.415039062 233.376953125 790.623046875 c 2
 105.376953125 662.623046875 l 2
256 800 m 2
 238.338867188 800 224 785.661132812 224 768 c 0
 224 750.338867188 238.338867188 736 256 736 c 2
 512 736 l 2
 529.661132812 736 544 750.338867188 544 768 c 0
 544 785.661132812 529.661132812 800 512 800 c 2
 256 800 l 2
534.623046875 790.623046875 m 2
 514.530273438 810.715820312 480 796.331054688 480 768 c 0
 480 759.168945312 483.584960938 751.168945312 489.376953125 745.376953125 c 2
 617.376953125 617.376953125 l 2
 637.469726562 597.284179688 672 611.668945312 672 640 c 0
 672 648.831054688 668.415039062 656.831054688 662.623046875 662.623046875 c 2
 534.623046875 790.623046875 l 2
672 640 m 2
 672 657.661132812 657.661132812 672 640 672 c 0
 622.338867188 672 608 657.661132812 608 640 c 2
 608 512 l 2
 608 494.338867188 622.338867188 480 640 480 c 0
 657.661132812 480 672 494.338867188 672 512 c 2
 672 640 l 2
662.623046875 489.376953125 m 2
 682.715820312 509.469726562 668.331054688 544 640 544 c 0
 631.168945312 544 623.168945312 540.415039062 617.376953125 534.623046875 c 2
 489.376953125 406.623046875 l 2
 469.284179688 386.530273438 483.668945312 352 512 352 c 0
 520.831054688 352 528.831054688 355.584960938 534.623046875 361.376953125 c 2
 662.623046875 489.376953125 l 2
512 352 m 2
 529.661132812 352 544 366.338867188 544 384 c 0
 544 401.661132812 529.661132812 416 512 416 c 2
 384 416 l 2
 366.338867188 416 352 401.661132812 352 384 c 0
 352 366.338867188 366.338867188 352 384 352 c 2
 512 352 l 2
384 416 m 2
 366.338867188 416 352 401.661132812 352 384 c 0
 352 366.338867188 366.338867188 352 384 352 c 2
 512 352 l 2
 529.661132812 352 544 366.338867188 544 384 c 0
 544 401.661132812 529.661132812 416 512 416 c 2
 384 416 l 2
534.623046875 406.623046875 m 2
 514.530273438 426.715820312 480 412.331054688 480 384 c 0
 480 375.168945312 483.584960938 367.168945312 489.376953125 361.376953125 c 2
 617.376953125 233.376953125 l 2
 637.469726562 213.284179688 672 227.668945312 672 256 c 0
 672 264.831054688 668.415039062 272.831054688 662.623046875 278.623046875 c 2
 534.623046875 406.623046875 l 2
672 256 m 2
 672 273.661132812 657.661132812 288 640 288 c 0
 622.338867188 288 608 273.661132812 608 256 c 2
 608 128 l 2
 608 110.338867188 622.338867188 96 640 96 c 0
 657.661132812 96 672 110.338867188 672 128 c 2
 672 256 l 2
662.623046875 105.376953125 m 2
 682.715820312 125.469726562 668.331054688 160 640 160 c 0
 631.168945312 160 623.168945312 156.415039062 617.376953125 150.623046875 c 2
 489.376953125 22.623046875 l 2
 469.284179688 2.5302734375 483.668945312 -32 512 -32 c 0
 520.831054688 -32 528.831054688 -28.4150390625 534.623046875 -22.623046875 c 2
 662.623046875 105.376953125 l 2
512 -32 m 2
 529.661132812 -32 544 -17.6611328125 544 0 c 0
 544 17.6611328125 529.661132812 32 512 32 c 2
 256 32 l 2
 238.338867188 32 224 17.6611328125 224 0 c 0
 224 -17.6611328125 238.338867188 -32 256 -32 c 2
 512 -32 l 2
233.376953125 -22.623046875 m 2
 253.469726562 -42.7158203125 288 -28.3310546875 288 0 c 0
 288 8.8310546875 284.415039062 16.8310546875 278.623046875 22.623046875 c 2
 150.623046875 150.623046875 l 2
 130.530273438 170.715820312 96 156.331054688 96 128 c 0
 96 119.168945312 99.5849609375 111.168945312 105.376953125 105.376953125 c 2
 233.376953125 -22.623046875 l 2
EndSplineSet
EndChar

StartChar: uni0418
Encoding: 1048 1048 31
Width: 768
Flags: HW
LayerCount: 2
Fore
SplineSet
160 768 m 2
 160 785.661132812 145.661132812 800 128 800 c 0
 110.338867188 800 96 785.661132812 96 768 c 2
 96 0 l 2
 96 -17.6611328125 110.338867188 -32 128 -32 c 0
 145.661132812 -32 160 -17.6611328125 160 0 c 2
 160 768 l 2
672 768 m 2
 672 785.661132812 657.661132812 800 640 800 c 0
 622.338867188 800 608 785.661132812 608 768 c 2
 608 0 l 2
 608 -17.6611328125 622.338867188 -32 640 -32 c 0
 657.661132812 -32 672 -17.6611328125 672 0 c 2
 672 768 l 2
105.376953125 150.623046875 m 2
 85.2841796875 130.530273438 99.6689453125 96 128 96 c 0
 136.831054688 96 144.831054688 99.5849609375 150.623046875 105.376953125 c 2
 662.623046875 617.376953125 l 2
 682.715820312 637.469726562 668.331054688 672 640 672 c 0
 631.168945312 672 623.168945312 668.415039062 617.376953125 662.623046875 c 2
 105.376953125 150.623046875 l 2
EndSplineSet
EndChar

StartChar: uni0419
Encoding: 1049 1049 32
Width: 768
Flags: HW
LayerCount: 2
Fore
SplineSet
160 768 m 2
 160 785.661132812 145.661132812 800 128 800 c 0
 110.338867188 800 96 785.661132812 96 768 c 2
 96 0 l 2
 96 -17.6611328125 110.338867188 -32 128 -32 c 0
 145.661132812 -32 160 -17.6611328125 160 0 c 2
 160 768 l 2
672 768 m 2
 672 785.661132812 657.661132812 800 640 800 c 0
 622.338867188 800 608 785.661132812 608 768 c 2
 608 0 l 2
 608 -17.6611328125 622.338867188 -32 640 -32 c 0
 657.661132812 -32 672 -17.6611328125 672 0 c 2
 672 768 l 2
105.376953125 150.623046875 m 2
 85.2841796875 130.530273438 99.6689453125 96 128 96 c 0
 136.831054688 96 144.831054688 99.5849609375 150.623046875 105.376953125 c 2
 662.623046875 617.376953125 l 2
 682.715820312 637.469726562 668.331054688 672 640 672 c 0
 631.168945312 672 623.168945312 668.415039062 617.376953125 662.623046875 c 2
 105.376953125 150.623046875 l 2
256 928 m 2
 238.338867188 928 224 913.661132812 224 896 c 0
 224 878.338867188 238.338867188 864 256 864 c 2
 512 864 l 2
 529.661132812 864 544 878.338867188 544 896 c 0
 544 913.661132812 529.661132812 928 512 928 c 2
 256 928 l 2
EndSplineSet
EndChar

StartChar: uni041A
Encoding: 1050 1050 33
Width: 768
Flags: HW
LayerCount: 2
Fore
SplineSet
160 768 m 2
 160 785.661132812 145.661132812 800 128 800 c 0
 110.338867188 800 96 785.661132812 96 768 c 2
 96 0 l 2
 96 -17.6611328125 110.338867188 -32 128 -32 c 0
 145.661132812 -32 160 -17.6611328125 160 0 c 2
 160 768 l 2
128 416 m 2
 110.338867188 416 96 401.661132812 96 384 c 0
 96 366.338867188 110.338867188 352 128 352 c 2
 256 352 l 2
 273.661132812 352 288 366.338867188 288 384 c 0
 288 401.661132812 273.661132812 416 256 416 c 2
 128 416 l 2
233.376953125 406.623046875 m 2
 213.284179688 386.530273438 227.668945312 352 256 352 c 0
 264.831054688 352 272.831054688 355.584960938 278.623046875 361.376953125 c 2
 662.623046875 745.376953125 l 2
 682.715820312 765.469726562 668.331054688 800 640 800 c 0
 631.168945312 800 623.168945312 796.415039062 617.376953125 790.623046875 c 2
 233.376953125 406.623046875 l 2
278.623046875 406.623046875 m 2
 258.530273438 426.715820312 224 412.331054688 224 384 c 0
 224 375.168945312 227.584960938 367.168945312 233.376953125 361.376953125 c 2
 617.376953125 -22.623046875 l 2
 637.469726562 -42.7158203125 672 -28.3310546875 672 0 c 0
 672 8.8310546875 668.415039062 16.8310546875 662.623046875 22.623046875 c 2
 278.623046875 406.623046875 l 2
EndSplineSet
EndChar

StartChar: K
Encoding: 75 75 34
Width: 768
Flags: HW
LayerCount: 2
Fore
SplineSet
160 768 m 2
 160 785.661132812 145.661132812 800 128 800 c 0
 110.338867188 800 96 785.661132812 96 768 c 2
 96 0 l 2
 96 -17.6611328125 110.338867188 -32 128 -32 c 0
 145.661132812 -32 160 -17.6611328125 160 0 c 2
 160 768 l 2
128 416 m 2
 110.338867188 416 96 401.661132812 96 384 c 0
 96 366.338867188 110.338867188 352 128 352 c 2
 256 352 l 2
 273.661132812 352 288 366.338867188 288 384 c 0
 288 401.661132812 273.661132812 416 256 416 c 2
 128 416 l 2
233.376953125 406.623046875 m 2
 213.284179688 386.530273438 227.668945312 352 256 352 c 0
 264.831054688 352 272.831054688 355.584960938 278.623046875 361.376953125 c 2
 662.623046875 745.376953125 l 2
 682.715820312 765.469726562 668.331054688 800 640 800 c 0
 631.168945312 800 623.168945312 796.415039062 617.376953125 790.623046875 c 2
 233.376953125 406.623046875 l 2
278.623046875 406.623046875 m 2
 258.530273438 426.715820312 224 412.331054688 224 384 c 0
 224 375.168945312 227.584960938 367.168945312 233.376953125 361.376953125 c 2
 617.376953125 -22.623046875 l 2
 637.469726562 -42.7158203125 672 -28.3310546875 672 0 c 0
 672 8.8310546875 668.415039062 16.8310546875 662.623046875 22.623046875 c 2
 278.623046875 406.623046875 l 2
EndSplineSet
EndChar

StartChar: uni041B
Encoding: 1051 1051 35
Width: 768
Flags: HW
LayerCount: 2
Fore
SplineSet
96 0 m 2
 96 -17.6611328125 110.338867188 -32 128 -32 c 0
 145.661132812 -32 160 -17.6611328125 160 0 c 2
 160 512 l 2
 160 529.661132812 145.661132812 544 128 544 c 0
 110.338867188 544 96 529.661132812 96 512 c 2
 96 0 l 2
105.376953125 534.623046875 m 2
 85.2841796875 514.530273438 99.6689453125 480 128 480 c 0
 136.831054688 480 144.831054688 483.584960938 150.623046875 489.376953125 c 2
 406.623046875 745.376953125 l 2
 426.715820312 765.469726562 412.331054688 800 384 800 c 0
 375.168945312 800 367.168945312 796.415039062 361.376953125 790.623046875 c 2
 105.376953125 534.623046875 l 2
384 800 m 2
 366.338867188 800 352 785.661132812 352 768 c 0
 352 750.338867188 366.338867188 736 384 736 c 2
 640 736 l 2
 657.661132812 736 672 750.338867188 672 768 c 0
 672 785.661132812 657.661132812 800 640 800 c 2
 384 800 l 2
672 768 m 2
 672 785.661132812 657.661132812 800 640 800 c 0
 622.338867188 800 608 785.661132812 608 768 c 2
 608 0 l 2
 608 -17.6611328125 622.338867188 -32 640 -32 c 0
 657.661132812 -32 672 -17.6611328125 672 0 c 2
 672 768 l 2
EndSplineSet
EndChar

StartChar: uni041C
Encoding: 1052 1052 36
Width: 1024
Flags: H
LayerCount: 2
Fore
SplineSet
96 0 m 2
 96 -17.6611328125 110.338867188 -32 128 -32 c 0
 145.661132812 -32 160 -17.6611328125 160 0 c 2
 160 768 l 2
 160 785.661132812 145.661132812 800 128 800 c 0
 110.338867188 800 96 785.661132812 96 768 c 2
 96 0 l 2
150.623046875 790.623046875 m 2
 130.530273438 810.715820312 96 796.331054688 96 768 c 0
 96 759.168945312 99.5849609375 751.168945312 105.376953125 745.376953125 c 2
 489.376953125 361.376953125 l 2
 509.469726562 341.284179688 544 355.668945312 544 384 c 0
 544 392.831054688 540.415039062 400.831054688 534.623046875 406.623046875 c 2
 150.623046875 790.623046875 l 2
489.376953125 406.623046875 m 2
 469.284179688 386.530273438 483.668945312 352 512 352 c 0
 520.831054688 352 528.831054688 355.584960938 534.623046875 361.376953125 c 2
 918.623046875 745.376953125 l 2
 938.715820312 765.469726562 924.331054688 800 896 800 c 0
 887.168945312 800 879.168945312 796.415039062 873.376953125 790.623046875 c 2
 489.376953125 406.623046875 l 2
928 768 m 2
 928 785.661132812 913.661132812 800 896 800 c 0
 878.338867188 800 864 785.661132812 864 768 c 2
 864 0 l 2
 864 -17.6611328125 878.338867188 -32 896 -32 c 0
 913.661132812 -32 928 -17.6611328125 928 0 c 2
 928 768 l 2
EndSplineSet
EndChar

StartChar: uni041D
Encoding: 1053 1053 37
Width: 768
Flags: HW
LayerCount: 2
Fore
SplineSet
160 768 m 2
 160 785.661132812 145.661132812 800 128 800 c 0
 110.338867188 800 96 785.661132812 96 768 c 2
 96 0 l 2
 96 -17.6611328125 110.338867188 -32 128 -32 c 0
 145.661132812 -32 160 -17.6611328125 160 0 c 2
 160 768 l 2
672 768 m 2
 672 785.661132812 657.661132812 800 640 800 c 0
 622.338867188 800 608 785.661132812 608 768 c 2
 608 0 l 2
 608 -17.6611328125 622.338867188 -32 640 -32 c 0
 657.661132812 -32 672 -17.6611328125 672 0 c 2
 672 768 l 2
128 416 m 2
 110.338867188 416 96 401.661132812 96 384 c 0
 96 366.338867188 110.338867188 352 128 352 c 2
 640 352 l 2
 657.661132812 352 672 366.338867188 672 384 c 0
 672 401.661132812 657.661132812 416 640 416 c 2
 128 416 l 2
EndSplineSet
EndChar

StartChar: uni041E
Encoding: 1054 1054 38
Width: 768
Flags: HW
LayerCount: 2
Fore
SplineSet
160 640 m 2
 160 657.661132812 145.661132812 672 128 672 c 0
 110.338867188 672 96 657.661132812 96 640 c 2
 96 128 l 2
 96 110.338867188 110.338867188 96 128 96 c 0
 145.661132812 96 160 110.338867188 160 128 c 2
 160 640 l 2
150.623046875 150.623046875 m 2
 130.530273438 170.715820312 96 156.331054688 96 128 c 0
 96 119.168945312 99.5849609375 111.168945312 105.376953125 105.376953125 c 2
 233.376953125 -22.623046875 l 2
 253.469726562 -42.7158203125 288 -28.3310546875 288 0 c 0
 288 8.8310546875 284.415039062 16.8310546875 278.623046875 22.623046875 c 2
 150.623046875 150.623046875 l 2
256 32 m 2
 238.338867188 32 224 17.6611328125 224 0 c 0
 224 -17.6611328125 238.338867188 -32 256 -32 c 2
 512 -32 l 2
 529.661132812 -32 544 -17.6611328125 544 0 c 0
 544 17.6611328125 529.661132812 32 512 32 c 2
 256 32 l 2
489.376953125 22.623046875 m 2
 469.284179688 2.5302734375 483.668945312 -32 512 -32 c 0
 520.831054688 -32 528.831054688 -28.4150390625 534.623046875 -22.623046875 c 2
 662.623046875 105.376953125 l 2
 682.715820312 125.469726562 668.331054688 160 640 160 c 0
 631.168945312 160 623.168945312 156.415039062 617.376953125 150.623046875 c 2
 489.376953125 22.623046875 l 2
608 128 m 2
 608 110.338867188 622.338867188 96 640 96 c 0
 657.661132812 96 672 110.338867188 672 128 c 2
 672 640 l 2
 672 657.661132812 657.661132812 672 640 672 c 0
 622.338867188 672 608 657.661132812 608 640 c 2
 608 128 l 2
617.376953125 617.376953125 m 2
 637.469726562 597.284179688 672 611.668945312 672 640 c 0
 672 648.831054688 668.415039062 656.831054688 662.623046875 662.623046875 c 2
 534.623046875 790.623046875 l 2
 514.530273438 810.715820312 480 796.331054688 480 768 c 0
 480 759.168945312 483.584960938 751.168945312 489.376953125 745.376953125 c 2
 617.376953125 617.376953125 l 2
512 736 m 2
 529.661132812 736 544 750.338867188 544 768 c 0
 544 785.661132812 529.661132812 800 512 800 c 2
 256 800 l 2
 238.338867188 800 224 785.661132812 224 768 c 0
 224 750.338867188 238.338867188 736 256 736 c 2
 512 736 l 2
278.623046875 745.376953125 m 2
 298.715820312 765.469726562 284.331054688 800 256 800 c 0
 247.168945312 800 239.168945312 796.415039062 233.376953125 790.623046875 c 2
 105.376953125 662.623046875 l 2
 85.2841796875 642.530273438 99.6689453125 608 128 608 c 0
 136.831054688 608 144.831054688 611.584960938 150.623046875 617.376953125 c 2
 278.623046875 745.376953125 l 2
EndSplineSet
EndChar

StartChar: uni041F
Encoding: 1055 1055 39
Width: 768
Flags: HW
LayerCount: 2
Fore
SplineSet
96 0 m 2
 96 -17.6611328125 110.338867188 -32 128 -32 c 0
 145.661132812 -32 160 -17.6611328125 160 0 c 2
 160 768 l 2
 160 785.661132812 145.661132812 800 128 800 c 0
 110.338867188 800 96 785.661132812 96 768 c 2
 96 0 l 2
128 800 m 2
 110.338867188 800 96 785.661132812 96 768 c 0
 96 750.338867188 110.338867188 736 128 736 c 2
 640 736 l 2
 657.661132812 736 672 750.338867188 672 768 c 0
 672 785.661132812 657.661132812 800 640 800 c 2
 128 800 l 2
672 768 m 2
 672 785.661132812 657.661132812 800 640 800 c 0
 622.338867188 800 608 785.661132812 608 768 c 2
 608 0 l 2
 608 -17.6611328125 622.338867188 -32 640 -32 c 0
 657.661132812 -32 672 -17.6611328125 672 0 c 2
 672 768 l 2
EndSplineSet
EndChar

StartChar: uni0420
Encoding: 1056 1056 40
Width: 768
Flags: HW
LayerCount: 2
Fore
SplineSet
96 0 m 2
 96 -17.6611328125 110.338867188 -32 128 -32 c 0
 145.661132812 -32 160 -17.6611328125 160 0 c 2
 160 768 l 2
 160 785.661132812 145.661132812 800 128 800 c 0
 110.338867188 800 96 785.661132812 96 768 c 2
 96 0 l 2
128 800 m 2
 110.338867188 800 96 785.661132812 96 768 c 0
 96 750.338867188 110.338867188 736 128 736 c 2
 512 736 l 2
 529.661132812 736 544 750.338867188 544 768 c 0
 544 785.661132812 529.661132812 800 512 800 c 2
 128 800 l 2
534.623046875 790.623046875 m 2
 514.530273438 810.715820312 480 796.331054688 480 768 c 0
 480 759.168945312 483.584960938 751.168945312 489.376953125 745.376953125 c 2
 617.376953125 617.376953125 l 2
 637.469726562 597.284179688 672 611.668945312 672 640 c 0
 672 648.831054688 668.415039062 656.831054688 662.623046875 662.623046875 c 2
 534.623046875 790.623046875 l 2
672 640 m 2
 672 657.661132812 657.661132812 672 640 672 c 0
 622.338867188 672 608 657.661132812 608 640 c 2
 608 512 l 2
 608 494.338867188 622.338867188 480 640 480 c 0
 657.661132812 480 672 494.338867188 672 512 c 2
 672 640 l 2
662.623046875 489.376953125 m 2
 682.715820312 509.469726562 668.331054688 544 640 544 c 0
 631.168945312 544 623.168945312 540.415039062 617.376953125 534.623046875 c 2
 489.376953125 406.623046875 l 2
 469.284179688 386.530273438 483.668945312 352 512 352 c 0
 520.831054688 352 528.831054688 355.584960938 534.623046875 361.376953125 c 2
 662.623046875 489.376953125 l 2
512 352 m 2
 529.661132812 352 544 366.338867188 544 384 c 0
 544 401.661132812 529.661132812 416 512 416 c 2
 128 416 l 2
 110.338867188 416 96 401.661132812 96 384 c 0
 96 366.338867188 110.338867188 352 128 352 c 2
 512 352 l 2
EndSplineSet
EndChar

StartChar: O
Encoding: 79 79 41
Width: 768
Flags: HW
LayerCount: 2
Fore
SplineSet
160 640 m 2
 160 657.661132812 145.661132812 672 128 672 c 0
 110.338867188 672 96 657.661132812 96 640 c 2
 96 128 l 2
 96 110.338867188 110.338867188 96 128 96 c 0
 145.661132812 96 160 110.338867188 160 128 c 2
 160 640 l 2
150.623046875 150.623046875 m 2
 130.530273438 170.715820312 96 156.331054688 96 128 c 0
 96 119.168945312 99.5849609375 111.168945312 105.376953125 105.376953125 c 2
 233.376953125 -22.623046875 l 2
 253.469726562 -42.7158203125 288 -28.3310546875 288 0 c 0
 288 8.8310546875 284.415039062 16.8310546875 278.623046875 22.623046875 c 2
 150.623046875 150.623046875 l 2
256 32 m 2
 238.338867188 32 224 17.6611328125 224 0 c 0
 224 -17.6611328125 238.338867188 -32 256 -32 c 2
 512 -32 l 2
 529.661132812 -32 544 -17.6611328125 544 0 c 0
 544 17.6611328125 529.661132812 32 512 32 c 2
 256 32 l 2
489.376953125 22.623046875 m 2
 469.284179688 2.5302734375 483.668945312 -32 512 -32 c 0
 520.831054688 -32 528.831054688 -28.4150390625 534.623046875 -22.623046875 c 2
 662.623046875 105.376953125 l 2
 682.715820312 125.469726562 668.331054688 160 640 160 c 0
 631.168945312 160 623.168945312 156.415039062 617.376953125 150.623046875 c 2
 489.376953125 22.623046875 l 2
608 128 m 2
 608 110.338867188 622.338867188 96 640 96 c 0
 657.661132812 96 672 110.338867188 672 128 c 2
 672 640 l 2
 672 657.661132812 657.661132812 672 640 672 c 0
 622.338867188 672 608 657.661132812 608 640 c 2
 608 128 l 2
617.376953125 617.376953125 m 2
 637.469726562 597.284179688 672 611.668945312 672 640 c 0
 672 648.831054688 668.415039062 656.831054688 662.623046875 662.623046875 c 2
 534.623046875 790.623046875 l 2
 514.530273438 810.715820312 480 796.331054688 480 768 c 0
 480 759.168945312 483.584960938 751.168945312 489.376953125 745.376953125 c 2
 617.376953125 617.376953125 l 2
512 736 m 2
 529.661132812 736 544 750.338867188 544 768 c 0
 544 785.661132812 529.661132812 800 512 800 c 2
 256 800 l 2
 238.338867188 800 224 785.661132812 224 768 c 0
 224 750.338867188 238.338867188 736 256 736 c 2
 512 736 l 2
278.623046875 745.376953125 m 2
 298.715820312 765.469726562 284.331054688 800 256 800 c 0
 247.168945312 800 239.168945312 796.415039062 233.376953125 790.623046875 c 2
 105.376953125 662.623046875 l 2
 85.2841796875 642.530273438 99.6689453125 608 128 608 c 0
 136.831054688 608 144.831054688 611.584960938 150.623046875 617.376953125 c 2
 278.623046875 745.376953125 l 2
EndSplineSet
EndChar

StartChar: M
Encoding: 77 77 42
Width: 1024
Flags: H
LayerCount: 2
Fore
SplineSet
96 0 m 2
 96 -17.6611328125 110.338867188 -32 128 -32 c 0
 145.661132812 -32 160 -17.6611328125 160 0 c 2
 160 768 l 2
 160 785.661132812 145.661132812 800 128 800 c 0
 110.338867188 800 96 785.661132812 96 768 c 2
 96 0 l 2
150.623046875 790.623046875 m 2
 130.530273438 810.715820312 96 796.331054688 96 768 c 0
 96 759.168945312 99.5849609375 751.168945312 105.376953125 745.376953125 c 2
 489.376953125 361.376953125 l 2
 509.469726562 341.284179688 544 355.668945312 544 384 c 0
 544 392.831054688 540.415039062 400.831054688 534.623046875 406.623046875 c 2
 150.623046875 790.623046875 l 2
489.376953125 406.623046875 m 2
 469.284179688 386.530273438 483.668945312 352 512 352 c 0
 520.831054688 352 528.831054688 355.584960938 534.623046875 361.376953125 c 2
 918.623046875 745.376953125 l 2
 938.715820312 765.469726562 924.331054688 800 896 800 c 0
 887.168945312 800 879.168945312 796.415039062 873.376953125 790.623046875 c 2
 489.376953125 406.623046875 l 2
928 768 m 2
 928 785.661132812 913.661132812 800 896 800 c 0
 878.338867188 800 864 785.661132812 864 768 c 2
 864 0 l 2
 864 -17.6611328125 878.338867188 -32 896 -32 c 0
 913.661132812 -32 928 -17.6611328125 928 0 c 2
 928 768 l 2
EndSplineSet
EndChar

StartChar: P
Encoding: 80 80 43
Width: 768
Flags: HW
LayerCount: 2
Fore
SplineSet
96 0 m 2
 96 -17.6611328125 110.338867188 -32 128 -32 c 0
 145.661132812 -32 160 -17.6611328125 160 0 c 2
 160 768 l 2
 160 785.661132812 145.661132812 800 128 800 c 0
 110.338867188 800 96 785.661132812 96 768 c 2
 96 0 l 2
128 800 m 2
 110.338867188 800 96 785.661132812 96 768 c 0
 96 750.338867188 110.338867188 736 128 736 c 2
 512 736 l 2
 529.661132812 736 544 750.338867188 544 768 c 0
 544 785.661132812 529.661132812 800 512 800 c 2
 128 800 l 2
534.623046875 790.623046875 m 2
 514.530273438 810.715820312 480 796.331054688 480 768 c 0
 480 759.168945312 483.584960938 751.168945312 489.376953125 745.376953125 c 2
 617.376953125 617.376953125 l 2
 637.469726562 597.284179688 672 611.668945312 672 640 c 0
 672 648.831054688 668.415039062 656.831054688 662.623046875 662.623046875 c 2
 534.623046875 790.623046875 l 2
672 640 m 2
 672 657.661132812 657.661132812 672 640 672 c 0
 622.338867188 672 608 657.661132812 608 640 c 2
 608 512 l 2
 608 494.338867188 622.338867188 480 640 480 c 0
 657.661132812 480 672 494.338867188 672 512 c 2
 672 640 l 2
662.623046875 489.376953125 m 2
 682.715820312 509.469726562 668.331054688 544 640 544 c 0
 631.168945312 544 623.168945312 540.415039062 617.376953125 534.623046875 c 2
 489.376953125 406.623046875 l 2
 469.284179688 386.530273438 483.668945312 352 512 352 c 0
 520.831054688 352 528.831054688 355.584960938 534.623046875 361.376953125 c 2
 662.623046875 489.376953125 l 2
512 352 m 2
 529.661132812 352 544 366.338867188 544 384 c 0
 544 401.661132812 529.661132812 416 512 416 c 2
 128 416 l 2
 110.338867188 416 96 401.661132812 96 384 c 0
 96 366.338867188 110.338867188 352 128 352 c 2
 512 352 l 2
EndSplineSet
EndChar

StartChar: T
Encoding: 84 84 44
Width: 768
Flags: HW
LayerCount: 2
Fore
SplineSet
128 800 m 2
 110.338867188 800 96 785.661132812 96 768 c 0
 96 750.338867188 110.338867188 736 128 736 c 2
 640 736 l 2
 657.661132812 736 672 750.338867188 672 768 c 0
 672 785.661132812 657.661132812 800 640 800 c 2
 128 800 l 2
416 768 m 2
 416 785.661132812 401.661132812 800 384 800 c 0
 366.338867188 800 352 785.661132812 352 768 c 2
 352 0 l 2
 352 -17.6611328125 366.338867188 -32 384 -32 c 0
 401.661132812 -32 416 -17.6611328125 416 0 c 2
 416 768 l 2
EndSplineSet
EndChar

StartChar: X
Encoding: 88 88 45
Width: 768
Flags: HW
LayerCount: 2
Fore
SplineSet
160 768 m 2
 160 785.661132812 145.661132812 800 128 800 c 0
 110.338867188 800 96 785.661132812 96 768 c 2
 96 640 l 2
 96 622.338867188 110.338867188 608 128 608 c 0
 145.661132812 608 160 622.338867188 160 640 c 2
 160 768 l 2
150.623046875 662.623046875 m 2
 130.530273438 682.715820312 96 668.331054688 96 640 c 0
 96 631.168945312 99.5849609375 623.168945312 105.376953125 617.376953125 c 2
 617.376953125 105.376953125 l 2
 637.469726562 85.2841796875 672 99.6689453125 672 128 c 0
 672 136.831054688 668.415039062 144.831054688 662.623046875 150.623046875 c 2
 150.623046875 662.623046875 l 2
672 128 m 2
 672 145.661132812 657.661132812 160 640 160 c 0
 622.338867188 160 608 145.661132812 608 128 c 2
 608 0 l 2
 608 -17.6611328125 622.338867188 -32 640 -32 c 0
 657.661132812 -32 672 -17.6611328125 672 0 c 2
 672 128 l 2
672 768 m 2
 672 785.661132812 657.661132812 800 640 800 c 0
 622.338867188 800 608 785.661132812 608 768 c 2
 608 640 l 2
 608 622.338867188 622.338867188 608 640 608 c 0
 657.661132812 608 672 622.338867188 672 640 c 2
 672 768 l 2
662.623046875 617.376953125 m 2
 682.715820312 637.469726562 668.331054688 672 640 672 c 0
 631.168945312 672 623.168945312 668.415039062 617.376953125 662.623046875 c 2
 105.376953125 150.623046875 l 2
 85.2841796875 130.530273438 99.6689453125 96 128 96 c 0
 136.831054688 96 144.831054688 99.5849609375 150.623046875 105.376953125 c 2
 662.623046875 617.376953125 l 2
160 128 m 2
 160 145.661132812 145.661132812 160 128 160 c 0
 110.338867188 160 96 145.661132812 96 128 c 2
 96 0 l 2
 96 -17.6611328125 110.338867188 -32 128 -32 c 0
 145.661132812 -32 160 -17.6611328125 160 0 c 2
 160 128 l 2
EndSplineSet
EndChar

StartChar: uni0422
Encoding: 1058 1058 46
Width: 768
Flags: HW
LayerCount: 2
Fore
SplineSet
128 800 m 2
 110.338867188 800 96 785.661132812 96 768 c 0
 96 750.338867188 110.338867188 736 128 736 c 2
 640 736 l 2
 657.661132812 736 672 750.338867188 672 768 c 0
 672 785.661132812 657.661132812 800 640 800 c 2
 128 800 l 2
416 768 m 2
 416 785.661132812 401.661132812 800 384 800 c 0
 366.338867188 800 352 785.661132812 352 768 c 2
 352 0 l 2
 352 -17.6611328125 366.338867188 -32 384 -32 c 0
 401.661132812 -32 416 -17.6611328125 416 0 c 2
 416 768 l 2
EndSplineSet
EndChar

StartChar: uni0423
Encoding: 1059 1059 47
Width: 768
Flags: HW
LayerCount: 2
Fore
SplineSet
160 768 m 2
 160 785.661132812 145.661132812 800 128 800 c 0
 110.338867188 800 96 785.661132812 96 768 c 2
 96 512 l 2
 96 494.338867188 110.338867188 480 128 480 c 0
 145.661132812 480 160 494.338867188 160 512 c 2
 160 768 l 2
150.623046875 534.623046875 m 2
 130.530273438 554.715820312 96 540.331054688 96 512 c 0
 96 503.168945312 99.5849609375 495.168945312 105.376953125 489.376953125 c 2
 233.376953125 361.376953125 l 2
 253.469726562 341.284179688 288 355.668945312 288 384 c 0
 288 392.831054688 284.415039062 400.831054688 278.623046875 406.623046875 c 2
 150.623046875 534.623046875 l 2
256 416 m 2
 238.338867188 416 224 401.661132812 224 384 c 0
 224 366.338867188 238.338867188 352 256 352 c 2
 640 352 l 2
 657.661132812 352 672 366.338867188 672 384 c 0
 672 401.661132812 657.661132812 416 640 416 c 2
 256 416 l 2
672 768 m 2
 672 785.661132812 657.661132812 800 640 800 c 0
 622.338867188 800 608 785.661132812 608 768 c 2
 608 128 l 2
 608 110.338867188 622.338867188 96 640 96 c 0
 657.661132812 96 672 110.338867188 672 128 c 2
 672 768 l 2
662.623046875 105.376953125 m 2
 682.715820312 125.469726562 668.331054688 160 640 160 c 0
 631.168945312 160 623.168945312 156.415039062 617.376953125 150.623046875 c 2
 489.376953125 22.623046875 l 2
 469.284179688 2.5302734375 483.668945312 -32 512 -32 c 0
 520.831054688 -32 528.831054688 -28.4150390625 534.623046875 -22.623046875 c 2
 662.623046875 105.376953125 l 2
512 -32 m 2
 529.661132812 -32 544 -17.6611328125 544 0 c 0
 544 17.6611328125 529.661132812 32 512 32 c 2
 128 32 l 2
 110.338867188 32 96 17.6611328125 96 0 c 0
 96 -17.6611328125 110.338867188 -32 128 -32 c 2
 512 -32 l 2
EndSplineSet
EndChar

StartChar: uni0424
Encoding: 1060 1060 48
Width: 1024
Flags: H
LayerCount: 2
Fore
SplineSet
105.376953125 534.623046875 m 2
 85.2841796875 514.530273438 99.6689453125 480 128 480 c 0
 136.831054688 480 144.831054688 483.584960938 150.623046875 489.376953125 c 2
 278.623046875 617.376953125 l 2
 298.715820312 637.469726562 284.331054688 672 256 672 c 0
 247.168945312 672 239.168945312 668.415039062 233.376953125 662.623046875 c 2
 105.376953125 534.623046875 l 2
256 672 m 2
 238.338867188 672 224 657.661132812 224 640 c 0
 224 622.338867188 238.338867188 608 256 608 c 2
 768 608 l 2
 785.661132812 608 800 622.338867188 800 640 c 0
 800 657.661132812 785.661132812 672 768 672 c 2
 256 672 l 2
790.623046875 662.623046875 m 2
 770.530273438 682.715820312 736 668.331054688 736 640 c 0
 736 631.168945312 739.584960938 623.168945312 745.376953125 617.376953125 c 2
 873.376953125 489.376953125 l 2
 893.469726562 469.284179688 928 483.668945312 928 512 c 0
 928 520.831054688 924.415039062 528.831054688 918.623046875 534.623046875 c 2
 790.623046875 662.623046875 l 2
928 512 m 2
 928 529.661132812 913.661132812 544 896 544 c 0
 878.338867188 544 864 529.661132812 864 512 c 2
 864 256 l 2
 864 238.338867188 878.338867188 224 896 224 c 0
 913.661132812 224 928 238.338867188 928 256 c 2
 928 512 l 2
918.623046875 233.376953125 m 2
 938.715820312 253.469726562 924.331054688 288 896 288 c 0
 887.168945312 288 879.168945312 284.415039062 873.376953125 278.623046875 c 2
 745.376953125 150.623046875 l 2
 725.284179688 130.530273438 739.668945312 96 768 96 c 0
 776.831054688 96 784.831054688 99.5849609375 790.623046875 105.376953125 c 2
 918.623046875 233.376953125 l 2
768 96 m 2
 785.661132812 96 800 110.338867188 800 128 c 0
 800 145.661132812 785.661132812 160 768 160 c 2
 256 160 l 2
 238.338867188 160 224 145.661132812 224 128 c 0
 224 110.338867188 238.338867188 96 256 96 c 2
 768 96 l 2
233.376953125 105.376953125 m 2
 253.469726562 85.2841796875 288 99.6689453125 288 128 c 0
 288 136.831054688 284.415039062 144.831054688 278.623046875 150.623046875 c 2
 150.623046875 278.623046875 l 2
 130.530273438 298.715820312 96 284.331054688 96 256 c 0
 96 247.168945312 99.5849609375 239.168945312 105.376953125 233.376953125 c 2
 233.376953125 105.376953125 l 2
96 256 m 2
 96 238.338867188 110.338867188 224 128 224 c 0
 145.661132812 224 160 238.338867188 160 256 c 2
 160 512 l 2
 160 529.661132812 145.661132812 544 128 544 c 0
 110.338867188 544 96 529.661132812 96 512 c 2
 96 256 l 2
544 768 m 2
 544 785.661132812 529.661132812 800 512 800 c 0
 494.338867188 800 480 785.661132812 480 768 c 2
 480 0 l 2
 480 -17.6611328125 494.338867188 -32 512 -32 c 0
 529.661132812 -32 544 -17.6611328125 544 0 c 2
 544 768 l 2
EndSplineSet
EndChar

StartChar: uni0425
Encoding: 1061 1061 49
Width: 768
Flags: HW
LayerCount: 2
Fore
SplineSet
160 768 m 2
 160 785.661132812 145.661132812 800 128 800 c 0
 110.338867188 800 96 785.661132812 96 768 c 2
 96 640 l 2
 96 622.338867188 110.338867188 608 128 608 c 0
 145.661132812 608 160 622.338867188 160 640 c 2
 160 768 l 2
150.623046875 662.623046875 m 2
 130.530273438 682.715820312 96 668.331054688 96 640 c 0
 96 631.168945312 99.5849609375 623.168945312 105.376953125 617.376953125 c 2
 617.376953125 105.376953125 l 2
 637.469726562 85.2841796875 672 99.6689453125 672 128 c 0
 672 136.831054688 668.415039062 144.831054688 662.623046875 150.623046875 c 2
 150.623046875 662.623046875 l 2
672 128 m 2
 672 145.661132812 657.661132812 160 640 160 c 0
 622.338867188 160 608 145.661132812 608 128 c 2
 608 0 l 2
 608 -17.6611328125 622.338867188 -32 640 -32 c 0
 657.661132812 -32 672 -17.6611328125 672 0 c 2
 672 128 l 2
672 768 m 2
 672 785.661132812 657.661132812 800 640 800 c 0
 622.338867188 800 608 785.661132812 608 768 c 2
 608 640 l 2
 608 622.338867188 622.338867188 608 640 608 c 0
 657.661132812 608 672 622.338867188 672 640 c 2
 672 768 l 2
662.623046875 617.376953125 m 2
 682.715820312 637.469726562 668.331054688 672 640 672 c 0
 631.168945312 672 623.168945312 668.415039062 617.376953125 662.623046875 c 2
 105.376953125 150.623046875 l 2
 85.2841796875 130.530273438 99.6689453125 96 128 96 c 0
 136.831054688 96 144.831054688 99.5849609375 150.623046875 105.376953125 c 2
 662.623046875 617.376953125 l 2
160 128 m 2
 160 145.661132812 145.661132812 160 128 160 c 0
 110.338867188 160 96 145.661132812 96 128 c 2
 96 0 l 2
 96 -17.6611328125 110.338867188 -32 128 -32 c 0
 145.661132812 -32 160 -17.6611328125 160 0 c 2
 160 128 l 2
EndSplineSet
EndChar

StartChar: H
Encoding: 72 72 50
Width: 768
Flags: HW
LayerCount: 2
Fore
SplineSet
160 768 m 2
 160 785.661132812 145.661132812 800 128 800 c 0
 110.338867188 800 96 785.661132812 96 768 c 2
 96 0 l 2
 96 -17.6611328125 110.338867188 -32 128 -32 c 0
 145.661132812 -32 160 -17.6611328125 160 0 c 2
 160 768 l 2
672 768 m 2
 672 785.661132812 657.661132812 800 640 800 c 0
 622.338867188 800 608 785.661132812 608 768 c 2
 608 0 l 2
 608 -17.6611328125 622.338867188 -32 640 -32 c 0
 657.661132812 -32 672 -17.6611328125 672 0 c 2
 672 768 l 2
128 416 m 2
 110.338867188 416 96 401.661132812 96 384 c 0
 96 366.338867188 110.338867188 352 128 352 c 2
 640 352 l 2
 657.661132812 352 672 366.338867188 672 384 c 0
 672 401.661132812 657.661132812 416 640 416 c 2
 128 416 l 2
EndSplineSet
EndChar

StartChar: uni0426
Encoding: 1062 1062 51
Width: 768
Flags: HW
LayerCount: 2
Fore
SplineSet
160 768 m 2
 160 785.661132812 145.661132812 800 128 800 c 0
 110.338867188 800 96 785.661132812 96 768 c 2
 96 0 l 2
 96 -17.6611328125 110.338867188 -32 128 -32 c 0
 145.661132812 -32 160 -17.6611328125 160 0 c 2
 160 768 l 2
128 32 m 2
 110.338867188 32 96 17.6611328125 96 0 c 0
 96 -17.6611328125 110.338867188 -32 128 -32 c 2
 768 -32 l 2
 785.661132812 -32 800 -17.6611328125 800 0 c 0
 800 17.6611328125 785.661132812 32 768 32 c 2
 128 32 l 2
800 0 m 2
 800 17.6611328125 785.661132812 32 768 32 c 0
 750.338867188 32 736 17.6611328125 736 0 c 2
 736 -128 l 2
 736 -145.661132812 750.338867188 -160 768 -160 c 0
 785.661132812 -160 800 -145.661132812 800 -128 c 2
 800 0 l 2
672 768 m 2
 672 785.661132812 657.661132812 800 640 800 c 0
 622.338867188 800 608 785.661132812 608 768 c 2
 608 0 l 2
 608 -17.6611328125 622.338867188 -32 640 -32 c 0
 657.661132812 -32 672 -17.6611328125 672 0 c 2
 672 768 l 2
EndSplineSet
EndChar

StartChar: uni0427
Encoding: 1063 1063 52
Width: 768
Flags: HW
LayerCount: 2
Fore
SplineSet
160 768 m 2
 160 785.661132812 145.661132812 800 128 800 c 0
 110.338867188 800 96 785.661132812 96 768 c 2
 96 512 l 2
 96 494.338867188 110.338867188 480 128 480 c 0
 145.661132812 480 160 494.338867188 160 512 c 2
 160 768 l 2
150.623046875 534.623046875 m 2
 130.530273438 554.715820312 96 540.331054688 96 512 c 0
 96 503.168945312 99.5849609375 495.168945312 105.376953125 489.376953125 c 2
 233.376953125 361.376953125 l 2
 253.469726562 341.284179688 288 355.668945312 288 384 c 0
 288 392.831054688 284.415039062 400.831054688 278.623046875 406.623046875 c 2
 150.623046875 534.623046875 l 2
256 416 m 2
 238.338867188 416 224 401.661132812 224 384 c 0
 224 366.338867188 238.338867188 352 256 352 c 2
 640 352 l 2
 657.661132812 352 672 366.338867188 672 384 c 0
 672 401.661132812 657.661132812 416 640 416 c 2
 256 416 l 2
672 768 m 2
 672 785.661132812 657.661132812 800 640 800 c 0
 622.338867188 800 608 785.661132812 608 768 c 2
 608 0 l 2
 608 -17.6611328125 622.338867188 -32 640 -32 c 0
 657.661132812 -32 672 -17.6611328125 672 0 c 2
 672 768 l 2
EndSplineSet
EndChar

StartChar: uni0428
Encoding: 1064 1064 53
Width: 1024
Flags: H
LayerCount: 2
Fore
SplineSet
160 768 m 2
 160 785.661132812 145.661132812 800 128 800 c 0
 110.338867188 800 96 785.661132812 96 768 c 2
 96 0 l 2
 96 -17.6611328125 110.338867188 -32 128 -32 c 0
 145.661132812 -32 160 -17.6611328125 160 0 c 2
 160 768 l 2
128 32 m 2
 110.338867188 32 96 17.6611328125 96 0 c 0
 96 -17.6611328125 110.338867188 -32 128 -32 c 2
 896 -32 l 2
 913.661132812 -32 928 -17.6611328125 928 0 c 0
 928 17.6611328125 913.661132812 32 896 32 c 2
 128 32 l 2
864 0 m 2
 864 -17.6611328125 878.338867188 -32 896 -32 c 0
 913.661132812 -32 928 -17.6611328125 928 0 c 2
 928 768 l 2
 928 785.661132812 913.661132812 800 896 800 c 0
 878.338867188 800 864 785.661132812 864 768 c 2
 864 0 l 2
544 768 m 2
 544 785.661132812 529.661132812 800 512 800 c 0
 494.338867188 800 480 785.661132812 480 768 c 2
 480 0 l 2
 480 -17.6611328125 494.338867188 -32 512 -32 c 0
 529.661132812 -32 544 -17.6611328125 544 0 c 2
 544 768 l 2
EndSplineSet
EndChar

StartChar: uni0429
Encoding: 1065 1065 54
Width: 1024
Flags: H
LayerCount: 2
Fore
SplineSet
160 768 m 2
 160 785.661132812 145.661132812 800 128 800 c 0
 110.338867188 800 96 785.661132812 96 768 c 2
 96 0 l 2
 96 -17.6611328125 110.338867188 -32 128 -32 c 0
 145.661132812 -32 160 -17.6611328125 160 0 c 2
 160 768 l 2
128 32 m 2
 110.338867188 32 96 17.6611328125 96 0 c 0
 96 -17.6611328125 110.338867188 -32 128 -32 c 2
 1024 -32 l 2
 1041.66113281 -32 1056 -17.6611328125 1056 0 c 0
 1056 17.6611328125 1041.66113281 32 1024 32 c 2
 128 32 l 2
1056 0 m 2
 1056 17.6611328125 1041.66113281 32 1024 32 c 0
 1006.33886719 32 992 17.6611328125 992 0 c 2
 992 -128 l 2
 992 -145.661132812 1006.33886719 -160 1024 -160 c 0
 1041.66113281 -160 1056 -145.661132812 1056 -128 c 2
 1056 0 l 2
544 768 m 2
 544 785.661132812 529.661132812 800 512 800 c 0
 494.338867188 800 480 785.661132812 480 768 c 2
 480 0 l 2
 480 -17.6611328125 494.338867188 -32 512 -32 c 0
 529.661132812 -32 544 -17.6611328125 544 0 c 2
 544 768 l 2
928 768 m 2
 928 785.661132812 913.661132812 800 896 800 c 0
 878.338867188 800 864 785.661132812 864 768 c 2
 864 0 l 2
 864 -17.6611328125 878.338867188 -32 896 -32 c 0
 913.661132812 -32 928 -17.6611328125 928 0 c 2
 928 768 l 2
EndSplineSet
EndChar

StartChar: uni042A
Encoding: 1066 1066 55
Width: 768
Flags: HW
LayerCount: 2
Fore
SplineSet
0 800 m 2
 -17.6611328125 800 -32 785.661132812 -32 768 c 0
 -32 750.338867188 -17.6611328125 736 0 736 c 2
 128 736 l 2
 145.661132812 736 160 750.338867188 160 768 c 0
 160 785.661132812 145.661132812 800 128 800 c 2
 0 800 l 2
160 768 m 2
 160 785.661132812 145.661132812 800 128 800 c 0
 110.338867188 800 96 785.661132812 96 768 c 2
 96 0 l 2
 96 -17.6611328125 110.338867188 -32 128 -32 c 0
 145.661132812 -32 160 -17.6611328125 160 0 c 2
 160 768 l 2
128 32 m 2
 110.338867188 32 96 17.6611328125 96 0 c 0
 96 -17.6611328125 110.338867188 -32 128 -32 c 2
 512 -32 l 2
 529.661132812 -32 544 -17.6611328125 544 0 c 0
 544 17.6611328125 529.661132812 32 512 32 c 2
 128 32 l 2
489.376953125 22.623046875 m 2
 469.284179688 2.5302734375 483.668945312 -32 512 -32 c 0
 520.831054688 -32 528.831054688 -28.4150390625 534.623046875 -22.623046875 c 2
 662.623046875 105.376953125 l 2
 682.715820312 125.469726562 668.331054688 160 640 160 c 0
 631.168945312 160 623.168945312 156.415039062 617.376953125 150.623046875 c 2
 489.376953125 22.623046875 l 2
608 128 m 2
 608 110.338867188 622.338867188 96 640 96 c 0
 657.661132812 96 672 110.338867188 672 128 c 2
 672 256 l 2
 672 273.661132812 657.661132812 288 640 288 c 0
 622.338867188 288 608 273.661132812 608 256 c 2
 608 128 l 2
617.376953125 233.376953125 m 2
 637.469726562 213.284179688 672 227.668945312 672 256 c 0
 672 264.831054688 668.415039062 272.831054688 662.623046875 278.623046875 c 2
 534.623046875 406.623046875 l 2
 514.530273438 426.715820312 480 412.331054688 480 384 c 0
 480 375.168945312 483.584960938 367.168945312 489.376953125 361.376953125 c 2
 617.376953125 233.376953125 l 2
512 352 m 2
 529.661132812 352 544 366.338867188 544 384 c 0
 544 401.661132812 529.661132812 416 512 416 c 2
 128 416 l 2
 110.338867188 416 96 401.661132812 96 384 c 0
 96 366.338867188 110.338867188 352 128 352 c 2
 512 352 l 2
EndSplineSet
EndChar

StartChar: uni042B
Encoding: 1067 1067 56
Width: 1014
Flags: HW
LayerCount: 2
Fore
SplineSet
160 768 m 2
 160 785.661132812 145.661132812 800 128 800 c 0
 110.338867188 800 96 785.661132812 96 768 c 2
 96 0 l 2
 96 -17.6611328125 110.338867188 -32 128 -32 c 0
 145.661132812 -32 160 -17.6611328125 160 0 c 2
 160 768 l 2
128 32 m 2
 110.338867188 32 96 17.6611328125 96 0 c 0
 96 -17.6611328125 110.338867188 -32 128 -32 c 2
 512 -32 l 2
 529.661132812 -32 544 -17.6611328125 544 0 c 0
 544 17.6611328125 529.661132812 32 512 32 c 2
 128 32 l 2
489.376953125 22.623046875 m 2
 469.284179688 2.5302734375 483.668945312 -32 512 -32 c 0
 520.831054688 -32 528.831054688 -28.4150390625 534.623046875 -22.623046875 c 2
 662.623046875 105.376953125 l 2
 682.715820312 125.469726562 668.331054688 160 640 160 c 0
 631.168945312 160 623.168945312 156.415039062 617.376953125 150.623046875 c 2
 489.376953125 22.623046875 l 2
608 128 m 2
 608 110.338867188 622.338867188 96 640 96 c 0
 657.661132812 96 672 110.338867188 672 128 c 2
 672 256 l 2
 672 273.661132812 657.661132812 288 640 288 c 0
 622.338867188 288 608 273.661132812 608 256 c 2
 608 128 l 2
617.376953125 233.376953125 m 2
 637.469726562 213.284179688 672 227.668945312 672 256 c 0
 672 264.831054688 668.415039062 272.831054688 662.623046875 278.623046875 c 2
 534.623046875 406.623046875 l 2
 514.530273438 426.715820312 480 412.331054688 480 384 c 0
 480 375.168945312 483.584960938 367.168945312 489.376953125 361.376953125 c 2
 617.376953125 233.376953125 l 2
512 352 m 2
 529.661132812 352 544 366.338867188 544 384 c 0
 544 401.661132812 529.661132812 416 512 416 c 2
 128 416 l 2
 110.338867188 416 96 401.661132812 96 384 c 0
 96 366.338867188 110.338867188 352 128 352 c 2
 512 352 l 2
928 768 m 2
 928 785.661132812 913.661132812 800 896 800 c 0
 878.338867188 800 864 785.661132812 864 768 c 2
 864 0 l 2
 864 -17.6611328125 878.338867188 -32 896 -32 c 0
 913.661132812 -32 928 -17.6611328125 928 0 c 2
 928 768 l 2
EndSplineSet
EndChar

StartChar: uni042C
Encoding: 1068 1068 57
Width: 768
Flags: HW
LayerCount: 2
Fore
SplineSet
160 768 m 2
 160 785.661132812 145.661132812 800 128 800 c 0
 110.338867188 800 96 785.661132812 96 768 c 2
 96 0 l 2
 96 -17.6611328125 110.338867188 -32 128 -32 c 0
 145.661132812 -32 160 -17.6611328125 160 0 c 2
 160 768 l 2
128 32 m 2
 110.338867188 32 96 17.6611328125 96 0 c 0
 96 -17.6611328125 110.338867188 -32 128 -32 c 2
 512 -32 l 2
 529.661132812 -32 544 -17.6611328125 544 0 c 0
 544 17.6611328125 529.661132812 32 512 32 c 2
 128 32 l 2
489.376953125 22.623046875 m 2
 469.284179688 2.5302734375 483.668945312 -32 512 -32 c 0
 520.831054688 -32 528.831054688 -28.4150390625 534.623046875 -22.623046875 c 2
 662.623046875 105.376953125 l 2
 682.715820312 125.469726562 668.331054688 160 640 160 c 0
 631.168945312 160 623.168945312 156.415039062 617.376953125 150.623046875 c 2
 489.376953125 22.623046875 l 2
608 128 m 2
 608 110.338867188 622.338867188 96 640 96 c 0
 657.661132812 96 672 110.338867188 672 128 c 2
 672 256 l 2
 672 273.661132812 657.661132812 288 640 288 c 0
 622.338867188 288 608 273.661132812 608 256 c 2
 608 128 l 2
617.376953125 233.376953125 m 2
 637.469726562 213.284179688 672 227.668945312 672 256 c 0
 672 264.831054688 668.415039062 272.831054688 662.623046875 278.623046875 c 2
 534.623046875 406.623046875 l 2
 514.530273438 426.715820312 480 412.331054688 480 384 c 0
 480 375.168945312 483.584960938 367.168945312 489.376953125 361.376953125 c 2
 617.376953125 233.376953125 l 2
512 352 m 2
 529.661132812 352 544 366.338867188 544 384 c 0
 544 401.661132812 529.661132812 416 512 416 c 2
 128 416 l 2
 110.338867188 416 96 401.661132812 96 384 c 0
 96 366.338867188 110.338867188 352 128 352 c 2
 512 352 l 2
EndSplineSet
EndChar

StartChar: uni042D
Encoding: 1069 1069 58
Width: 768
Flags: HW
LayerCount: 2
Fore
SplineSet
105.376953125 662.623046875 m 2
 85.2841796875 642.530273438 99.6689453125 608 128 608 c 0
 136.831054688 608 144.831054688 611.584960938 150.623046875 617.376953125 c 2
 278.623046875 745.376953125 l 2
 298.715820312 765.469726562 284.331054688 800 256 800 c 0
 247.168945312 800 239.168945312 796.415039062 233.376953125 790.623046875 c 2
 105.376953125 662.623046875 l 2
256 800 m 2
 238.338867188 800 224 785.661132812 224 768 c 0
 224 750.338867188 238.338867188 736 256 736 c 2
 512 736 l 2
 529.661132812 736 544 750.338867188 544 768 c 0
 544 785.661132812 529.661132812 800 512 800 c 2
 256 800 l 2
534.623046875 790.623046875 m 2
 514.530273438 810.715820312 480 796.331054688 480 768 c 0
 480 759.168945312 483.584960938 751.168945312 489.376953125 745.376953125 c 2
 617.376953125 617.376953125 l 2
 637.469726562 597.284179688 672 611.668945312 672 640 c 0
 672 648.831054688 668.415039062 656.831054688 662.623046875 662.623046875 c 2
 534.623046875 790.623046875 l 2
672 640 m 2
 672 657.661132812 657.661132812 672 640 672 c 0
 622.338867188 672 608 657.661132812 608 640 c 2
 608 128 l 2
 608 110.338867188 622.338867188 96 640 96 c 0
 657.661132812 96 672 110.338867188 672 128 c 2
 672 640 l 2
662.623046875 105.376953125 m 2
 682.715820312 125.469726562 668.331054688 160 640 160 c 0
 631.168945312 160 623.168945312 156.415039062 617.376953125 150.623046875 c 2
 489.376953125 22.623046875 l 2
 469.284179688 2.5302734375 483.668945312 -32 512 -32 c 0
 520.831054688 -32 528.831054688 -28.4150390625 534.623046875 -22.623046875 c 2
 662.623046875 105.376953125 l 2
512 -32 m 2
 529.661132812 -32 544 -17.6611328125 544 0 c 0
 544 17.6611328125 529.661132812 32 512 32 c 2
 256 32 l 2
 238.338867188 32 224 17.6611328125 224 0 c 0
 224 -17.6611328125 238.338867188 -32 256 -32 c 2
 512 -32 l 2
233.376953125 -22.623046875 m 2
 253.469726562 -42.7158203125 288 -28.3310546875 288 0 c 0
 288 8.8310546875 284.415039062 16.8310546875 278.623046875 22.623046875 c 2
 150.623046875 150.623046875 l 2
 130.530273438 170.715820312 96 156.331054688 96 128 c 0
 96 119.168945312 99.5849609375 111.168945312 105.376953125 105.376953125 c 2
 233.376953125 -22.623046875 l 2
256 416 m 2
 238.338867188 416 224 401.661132812 224 384 c 0
 224 366.338867188 238.338867188 352 256 352 c 2
 640 352 l 2
 657.661132812 352 672 366.338867188 672 384 c 0
 672 401.661132812 657.661132812 416 640 416 c 2
 256 416 l 2
EndSplineSet
EndChar

StartChar: uni042E
Encoding: 1070 1070 59
Width: 1024
Flags: H
LayerCount: 2
Fore
SplineSet
160 768 m 2
 160 785.661132812 145.661132812 800 128 800 c 0
 110.338867188 800 96 785.661132812 96 768 c 2
 96 0 l 2
 96 -17.6611328125 110.338867188 -32 128 -32 c 0
 145.661132812 -32 160 -17.6611328125 160 0 c 2
 160 768 l 2
128 416 m 2
 110.338867188 416 96 401.661132812 96 384 c 0
 96 366.338867188 110.338867188 352 128 352 c 2
 384 352 l 2
 401.661132812 352 416 366.338867188 416 384 c 0
 416 401.661132812 401.661132812 416 384 416 c 2
 128 416 l 2
361.376953125 662.623046875 m 2
 341.284179688 642.530273438 355.668945312 608 384 608 c 0
 392.831054688 608 400.831054688 611.584960938 406.623046875 617.376953125 c 2
 534.623046875 745.376953125 l 2
 554.715820312 765.469726562 540.331054688 800 512 800 c 0
 503.168945312 800 495.168945312 796.415039062 489.376953125 790.623046875 c 2
 361.376953125 662.623046875 l 2
512 800 m 2
 494.338867188 800 480 785.661132812 480 768 c 0
 480 750.338867188 494.338867188 736 512 736 c 2
 768 736 l 2
 785.661132812 736 800 750.338867188 800 768 c 0
 800 785.661132812 785.661132812 800 768 800 c 2
 512 800 l 2
790.623046875 790.623046875 m 2
 770.530273438 810.715820312 736 796.331054688 736 768 c 0
 736 759.168945312 739.584960938 751.168945312 745.376953125 745.376953125 c 2
 873.376953125 617.376953125 l 2
 893.469726562 597.284179688 928 611.668945312 928 640 c 0
 928 648.831054688 924.415039062 656.831054688 918.623046875 662.623046875 c 2
 790.623046875 790.623046875 l 2
928 640 m 2
 928 657.661132812 913.661132812 672 896 672 c 0
 878.338867188 672 864 657.661132812 864 640 c 2
 864 128 l 2
 864 110.338867188 878.338867188 96 896 96 c 0
 913.661132812 96 928 110.338867188 928 128 c 2
 928 640 l 2
918.623046875 105.376953125 m 2
 938.715820312 125.469726562 924.331054688 160 896 160 c 0
 887.168945312 160 879.168945312 156.415039062 873.376953125 150.623046875 c 2
 745.376953125 22.623046875 l 2
 725.284179688 2.5302734375 739.668945312 -32 768 -32 c 0
 776.831054688 -32 784.831054688 -28.4150390625 790.623046875 -22.623046875 c 2
 918.623046875 105.376953125 l 2
768 -32 m 2
 785.661132812 -32 800 -17.6611328125 800 0 c 0
 800 17.6611328125 785.661132812 32 768 32 c 2
 512 32 l 2
 494.338867188 32 480 17.6611328125 480 0 c 0
 480 -17.6611328125 494.338867188 -32 512 -32 c 2
 768 -32 l 2
489.376953125 -22.623046875 m 2
 509.469726562 -42.7158203125 544 -28.3310546875 544 0 c 0
 544 8.8310546875 540.415039062 16.8310546875 534.623046875 22.623046875 c 2
 406.623046875 150.623046875 l 2
 386.530273438 170.715820312 352 156.331054688 352 128 c 0
 352 119.168945312 355.584960938 111.168945312 361.376953125 105.376953125 c 2
 489.376953125 -22.623046875 l 2
352 128 m 2
 352 110.338867188 366.338867188 96 384 96 c 0
 401.661132812 96 416 110.338867188 416 128 c 2
 416 640 l 2
 416 657.661132812 401.661132812 672 384 672 c 0
 366.338867188 672 352 657.661132812 352 640 c 2
 352 128 l 2
EndSplineSet
EndChar

StartChar: uni042F
Encoding: 1071 1071 60
Width: 768
Flags: HW
LayerCount: 2
Fore
SplineSet
608 0 m 2
 608 -17.6611328125 622.338867188 -32 640 -32 c 0
 657.661132812 -32 672 -17.6611328125 672 0 c 2
 672 768 l 2
 672 785.661132812 657.661132812 800 640 800 c 0
 622.338867188 800 608 785.661132812 608 768 c 2
 608 0 l 2
640 736 m 2
 657.661132812 736 672 750.338867188 672 768 c 0
 672 785.661132812 657.661132812 800 640 800 c 2
 256 800 l 2
 238.338867188 800 224 785.661132812 224 768 c 0
 224 750.338867188 238.338867188 736 256 736 c 2
 640 736 l 2
278.623046875 745.376953125 m 2
 298.715820312 765.469726562 284.331054688 800 256 800 c 0
 247.168945312 800 239.168945312 796.415039062 233.376953125 790.623046875 c 2
 105.376953125 662.623046875 l 2
 85.2841796875 642.530273438 99.6689453125 608 128 608 c 0
 136.831054688 608 144.831054688 611.584960938 150.623046875 617.376953125 c 2
 278.623046875 745.376953125 l 2
160 640 m 2
 160 657.661132812 145.661132812 672 128 672 c 0
 110.338867188 672 96 657.661132812 96 640 c 2
 96 512 l 2
 96 494.338867188 110.338867188 480 128 480 c 0
 145.661132812 480 160 494.338867188 160 512 c 2
 160 640 l 2
150.623046875 534.623046875 m 2
 130.530273438 554.715820312 96 540.331054688 96 512 c 0
 96 503.168945312 99.5849609375 495.168945312 105.376953125 489.376953125 c 2
 233.376953125 361.376953125 l 2
 253.469726562 341.284179688 288 355.668945312 288 384 c 0
 288 392.831054688 284.415039062 400.831054688 278.623046875 406.623046875 c 2
 150.623046875 534.623046875 l 2
256 416 m 2
 238.338867188 416 224 401.661132812 224 384 c 0
 224 366.338867188 238.338867188 352 256 352 c 2
 640 352 l 2
 657.661132812 352 672 366.338867188 672 384 c 0
 672 401.661132812 657.661132812 416 640 416 c 2
 256 416 l 2
534.623046875 361.376953125 m 2
 554.715820312 381.469726562 540.331054688 416 512 416 c 0
 503.168945312 416 495.168945312 412.415039062 489.376953125 406.623046875 c 2
 105.376953125 22.623046875 l 2
 85.2841796875 2.5302734375 99.6689453125 -32 128 -32 c 0
 136.831054688 -32 144.831054688 -28.4150390625 150.623046875 -22.623046875 c 2
 534.623046875 361.376953125 l 2
EndSplineSet
EndChar

